<svg width="13" height="9" viewBox="0 0 13 9" fill="none" xmlns="http://www.w3.org/2000/svg">
<path d="M12.0594 4.04484L8.17056 0.155951C8.06578 0.0547523 7.92544 -0.00124479 7.77978 2.10014e-05C7.63411 0.00128679 7.49477 0.0597141 7.39177 0.162719C7.28876 0.265723 7.23034 0.405063 7.22907 0.550728C7.2278 0.696393 7.2838 0.836727 7.385 0.941507L10.3256 3.88206H0.555556C0.408213 3.88206 0.266905 3.94059 0.162718 4.04478C0.0585316 4.14897 0 4.29028 0 4.43762C0 4.58496 0.0585316 4.72627 0.162718 4.83045C0.266905 4.93464 0.408213 4.99317 0.555556 4.99317H10.3256L7.385 7.93373C7.33194 7.98498 7.28961 8.04628 7.2605 8.11406C7.23138 8.18184 7.21606 8.25474 7.21542 8.32851C7.21477 8.40227 7.22883 8.47543 7.25677 8.5437C7.2847 8.61198 7.32595 8.67401 7.37811 8.72617C7.43028 8.77833 7.4923 8.81958 7.56058 8.84752C7.62886 8.87545 7.70201 8.88951 7.77578 8.88887C7.84954 8.88823 7.92244 8.8729 7.99022 8.84378C8.058 8.81467 8.11931 8.77235 8.17056 8.71928L12.0594 4.8304C12.1636 4.72621 12.2221 4.58493 12.2221 4.43762C12.2221 4.2903 12.1636 4.14902 12.0594 4.04484Z" fill="#1D1D1D"/>
</svg>
