<svg width="130" height="31" viewBox="0 0 130 31" fill="none" xmlns="http://www.w3.org/2000/svg">
<g clip-path="url(#clip0_9754_743)">
<mask id="mask0_9754_743" style="mask-type:luminance" maskUnits="userSpaceOnUse" x="0" y="0" width="130" height="31">
<path d="M130 0H0V31H130V0Z" fill="white"/>
</mask>
<g mask="url(#mask0_9754_743)">
<mask id="mask1_9754_743" style="mask-type:luminance" maskUnits="userSpaceOnUse" x="0" y="0" width="130" height="31">
<path d="M130 0H0V31H130V0Z" fill="white"/>
</mask>
<g mask="url(#mask1_9754_743)">
<mask id="mask2_9754_743" style="mask-type:luminance" maskUnits="userSpaceOnUse" x="0" y="0" width="130" height="31">
<path d="M130 0H0V30.0826H130V0Z" fill="white"/>
</mask>
<g mask="url(#mask2_9754_743)">
<mask id="mask3_9754_743" style="mask-type:luminance" maskUnits="userSpaceOnUse" x="0" y="0" width="130" height="31">
<path d="M130 0H0V30.0826H130V0Z" fill="white"/>
</mask>
<g mask="url(#mask3_9754_743)">
<mask id="mask4_9754_743" style="mask-type:luminance" maskUnits="userSpaceOnUse" x="0" y="0" width="130" height="31">
<path d="M130 0H0V30.0826H130V0Z" fill="white"/>
</mask>
<g mask="url(#mask4_9754_743)">
<mask id="mask5_9754_743" style="mask-type:luminance" maskUnits="userSpaceOnUse" x="0" y="0" width="130" height="31">
<path d="M129.69 0H0V30.0826H129.69V0Z" fill="white"/>
</mask>
<g mask="url(#mask5_9754_743)">
<path d="M14.9459 30.0808C23.2004 30.0808 29.8918 23.3893 29.8918 15.1349C29.8918 6.88048 23.2004 0.188965 14.9459 0.188965C6.69152 0.188965 0 6.88048 0 15.1349C0 23.3893 6.69152 30.0808 14.9459 30.0808Z" fill="#4D585F"/>
<path fill-rule="evenodd" clip-rule="evenodd" d="M36.957 3.76071V-0.00195312H55.9606V3.76071H48.6251V26.0326H44.3684V3.76071H36.957ZM56.9968 9.08163C58.3144 7.43467 60.4934 6.61121 63.5341 6.61121C66.5745 6.61121 68.7407 7.43467 70.0329 9.08163C71.3505 10.7286 72.0093 13.199 72.0093 16.493C72.0093 19.7868 71.376 22.27 70.1092 23.9423C68.8424 25.6145 66.6506 26.4506 63.5341 26.4506C60.4175 26.4506 58.2258 25.6145 56.9587 23.9423C55.6919 22.27 55.0585 19.7868 55.0585 16.493C55.0585 13.199 55.7045 10.7286 56.9968 9.08163ZM60.1134 21.4338C60.6963 22.4473 61.8365 22.9541 63.5341 22.9541C65.2317 22.9541 66.3718 22.4473 66.9545 21.4338C67.5374 20.4204 67.8286 18.7606 67.8286 16.4549C67.8286 14.1492 67.512 12.515 66.8786 11.5521C66.2706 10.5892 65.1555 10.1078 63.5341 10.1078C61.9123 10.1078 60.7848 10.5892 60.1515 11.5521C59.5431 12.515 59.2392 14.1492 59.2392 16.4549C59.2392 18.7606 59.5307 20.4204 60.1134 21.4338ZM76.1246 26.0326H80.2673V18.2792L82.7379 18.0132L87.3746 26.0326H92.0494L86.2723 15.9229L91.7453 7.02929H87.1086L82.6236 14.4406L80.2673 14.6687V-0.00194692H76.1246V26.0326ZM93.3423 7.02929H97.4092L101.438 22.498H102.464L106.493 7.02929H110.598L104.472 30.0806H100.46L101.59 26.0326H98.3213L93.3423 7.02929ZM121.027 6.61121C117.986 6.61121 115.808 7.43467 114.489 9.08163C113.197 10.7286 112.551 13.199 112.551 16.493C112.551 19.7868 113.185 22.27 114.452 23.9423C115.718 25.6145 117.91 26.4506 121.027 26.4506C124.143 26.4506 126.334 25.6145 127.602 23.9423C128.869 22.27 129.502 19.7868 129.502 16.493C129.502 13.199 128.843 10.7286 127.526 9.08163C126.233 7.43467 124.067 6.61121 121.027 6.61121ZM121.027 22.9541C119.328 22.9541 118.188 22.4473 117.606 21.4338C117.023 20.4204 116.731 18.7606 116.731 16.4549C116.731 14.1492 117.036 12.515 117.644 11.5521C118.278 10.5892 119.405 10.1078 121.027 10.1078C122.648 10.1078 123.763 10.5892 124.371 11.5521C125.004 12.515 125.321 14.1492 125.321 16.4549C125.321 18.7606 125.03 20.4204 124.447 21.4338C123.864 22.4473 122.724 22.9541 121.027 22.9541Z" fill="#4D585F"/>
</g>
</g>
</g>
</g>
</g>
</g>
</g>
<defs>
<clipPath id="clip0_9754_743">
<rect width="130" height="31" fill="white"/>
</clipPath>
</defs>
</svg>
