<svg width="130" height="28" viewBox="0 0 130 28" fill="none" xmlns="http://www.w3.org/2000/svg">
<g clip-path="url(#clip0_9754_965)">
<mask id="mask0_9754_965" style="mask-type:luminance" maskUnits="userSpaceOnUse" x="0" y="0" width="130" height="28">
<path d="M130 0H0V28H130V0Z" fill="white"/>
</mask>
<g mask="url(#mask0_9754_965)">
<mask id="mask1_9754_965" style="mask-type:luminance" maskUnits="userSpaceOnUse" x="0" y="0" width="130" height="28">
<path d="M130 0H0V28H130V0Z" fill="white"/>
</mask>
<g mask="url(#mask1_9754_965)">
<mask id="mask2_9754_965" style="mask-type:luminance" maskUnits="userSpaceOnUse" x="0" y="0" width="130" height="28">
<path d="M130 0H0V28H130V0Z" fill="white"/>
</mask>
<g mask="url(#mask2_9754_965)">
<mask id="mask3_9754_965" style="mask-type:luminance" maskUnits="userSpaceOnUse" x="0" y="0" width="130" height="28">
<path d="M130 0H0V28H130V0Z" fill="white"/>
</mask>
<g mask="url(#mask3_9754_965)">
<mask id="mask4_9754_965" style="mask-type:luminance" maskUnits="userSpaceOnUse" x="0" y="0" width="130" height="28">
<path d="M130 0H0V28H130V0Z" fill="white"/>
</mask>
<g mask="url(#mask4_9754_965)">
<mask id="mask5_9754_965" style="mask-type:luminance" maskUnits="userSpaceOnUse" x="0" y="0" width="130" height="28">
<path d="M129.733 0H0V28H129.733V0Z" fill="white"/>
</mask>
<g mask="url(#mask5_9754_965)">
<path d="M14.9123 10.0677C15.6146 9.66233 16.7531 9.66233 17.4554 10.0677L31.0793 17.9328C31.7814 18.3382 31.7814 18.9955 31.0793 19.4009L17.4554 27.266C16.7531 27.6714 15.6146 27.6714 14.9123 27.266L1.2884 19.4009C0.586157 18.9955 0.58616 18.3382 1.2884 17.9328L14.9123 10.0677Z" fill="#4D585F"/>
<path d="M14.8948 5.62437C15.597 5.21896 16.7355 5.21896 17.4378 5.62437L31.0617 13.4894C31.764 13.8949 31.764 14.5521 31.0617 14.9575L17.4378 22.8226C16.7355 23.228 15.597 23.228 14.8948 22.8226L1.27081 14.9575C0.568584 14.5521 0.568584 13.8949 1.27081 13.4894L14.8948 5.62437Z" fill="#4D585F"/>
<path d="M14.8948 0.733737C15.597 0.328338 16.7355 0.328338 17.4378 0.733737L31.0617 8.59884C31.764 9.00422 31.764 9.6615 31.0617 10.0669L17.4378 17.932C16.7355 18.3374 15.597 18.3374 14.8948 17.932L1.27081 10.0669C0.568584 9.6615 0.568584 9.00422 1.27081 8.59884L14.8948 0.733737Z" fill="#4D585F"/>
<path d="M43.8405 21.301L38.3613 7.74805H40.7814L45.0601 18.7259H44.2083L48.5259 7.74805H50.9074L45.3893 21.301H43.8405ZM54.5785 21.4946C53.7395 21.4946 52.9779 21.2816 52.2937 20.8557C51.6227 20.4297 51.0869 19.8553 50.6869 19.1325C50.2995 18.3968 50.106 17.5772 50.106 16.6736C50.106 15.7572 50.2995 14.9375 50.6869 14.2147C51.0869 13.479 51.6227 12.8981 52.2937 12.4722C52.9779 12.0334 53.7395 11.8139 54.5785 11.8139C55.2885 11.8139 55.9145 11.9688 56.4564 12.2786C57.0114 12.5755 57.4504 12.9885 57.773 13.5177C58.0957 14.0469 58.2571 14.6471 58.2571 15.3183V17.9902C58.2571 18.6614 58.0957 19.2616 57.773 19.7908C57.4632 20.32 57.031 20.7395 56.476 21.0493C55.9207 21.3462 55.2885 21.4946 54.5785 21.4946ZM54.927 19.481C55.7144 19.481 56.3469 19.2164 56.8245 18.6872C57.3148 18.158 57.5602 17.4804 57.5602 16.6543C57.5602 16.0992 57.4504 15.6088 57.2311 15.1828C57.0114 14.7569 56.7019 14.4277 56.3015 14.1954C55.9145 13.9501 55.4562 13.8275 54.927 13.8275C54.4105 13.8275 53.9523 13.9501 53.5522 14.1954C53.1652 14.4277 52.8553 14.7569 52.6229 15.1828C52.4036 15.6088 52.2937 16.0992 52.2937 16.6543C52.2937 17.2093 52.4036 17.6998 52.6229 18.1257C52.8553 18.5517 53.1652 18.8873 53.5522 19.1325C53.9523 19.3649 54.4105 19.481 54.927 19.481ZM57.4246 21.301V18.8034L57.7923 16.5381L57.4246 14.2922V12.0075H59.5545V21.301H57.4246ZM68.2877 21.301V15.9379C68.2877 15.3183 68.0876 14.8085 67.6875 14.4083C67.3005 14.0082 66.7971 13.8081 66.1774 13.8081C65.7642 13.8081 65.3965 13.8985 65.0739 14.0792C64.7513 14.2599 64.4996 14.5116 64.3188 14.8343C64.1381 15.157 64.0475 15.5249 64.0475 15.9379L63.215 15.4732C63.215 14.7633 63.3699 14.1373 63.6798 13.5952C63.9897 13.0401 64.4156 12.6077 64.9575 12.298C65.5125 11.9753 66.1323 11.8139 66.8164 11.8139C67.5133 11.8139 68.133 11.9946 68.675 12.356C69.2173 12.7045 69.6432 13.1628 69.953 13.7307C70.2626 14.2857 70.4175 14.8666 70.4175 15.4732V21.301H68.2877ZM61.918 21.301V12.0075H64.0475V21.301H61.918ZM76.8606 21.4946C75.9441 21.4946 75.1116 21.2816 74.363 20.8557C73.6273 20.4297 73.0464 19.8489 72.6205 19.1132C72.1946 18.3774 71.9815 17.5578 71.9815 16.6543C71.9815 15.7378 72.1946 14.9182 72.6205 14.1954C73.0464 13.4596 73.6273 12.8788 74.363 12.4529C75.1116 12.0269 75.9441 11.8139 76.8606 11.8139C77.5833 11.8139 78.2547 11.9559 78.8741 12.2399C79.5066 12.5109 80.0424 12.9046 80.4813 13.4209L79.0873 14.8343C78.8163 14.5116 78.4871 14.2728 78.0998 14.1179C77.7255 13.9501 77.3124 13.8662 76.8606 13.8662C76.3314 13.8662 75.8604 13.9888 75.4473 14.2341C75.0472 14.4664 74.7308 14.7891 74.4987 15.2022C74.279 15.6152 74.1695 16.0992 74.1695 16.6543C74.1695 17.1964 74.279 17.6804 74.4987 18.1064C74.7308 18.5194 75.0472 18.8486 75.4473 19.0938C75.8604 19.3261 76.3314 19.4423 76.8606 19.4423C77.3124 19.4423 77.7255 19.3649 78.0998 19.21C78.4871 19.0422 78.8163 18.7969 79.0873 18.4742L80.4813 19.8876C80.0424 20.4039 79.5066 20.804 78.8741 21.088C78.2547 21.3591 77.5833 21.4946 76.8606 21.4946ZM86.0873 21.4946C85.1835 21.4946 84.364 21.2816 83.6282 20.8557C82.8925 20.4168 82.3051 19.8295 81.8664 19.0938C81.4405 18.3581 81.2274 17.5384 81.2274 16.6349C81.2274 15.7314 81.4405 14.9182 81.8664 14.1954C82.3051 13.4726 82.8925 12.8981 83.6282 12.4722C84.364 12.0334 85.1835 11.8139 86.0873 11.8139C87.0035 11.8139 87.8295 12.0269 88.5653 12.4529C89.301 12.8788 89.8819 13.4596 90.3078 14.1954C90.7468 14.9182 90.9661 15.7314 90.9661 16.6349C90.9661 17.5384 90.7468 18.3581 90.3078 19.0938C89.8819 19.8295 89.301 20.4168 88.5653 20.8557C87.8295 21.2816 87.0035 21.4946 86.0873 21.4946ZM86.0873 19.4423C86.6165 19.4423 87.0809 19.3261 87.481 19.0938C87.8942 18.8486 88.2103 18.513 88.4299 18.087C88.6623 17.6611 88.7784 17.177 88.7784 16.6349C88.7784 16.0928 88.6623 15.6152 88.4299 15.2022C88.1975 14.7891 87.8811 14.4664 87.481 14.2341C87.0809 13.9888 86.6165 13.8662 86.0873 13.8662C85.5708 13.8662 85.106 13.9888 84.6932 14.2341C84.2931 14.4664 83.9767 14.7891 83.7443 15.2022C83.5249 15.6152 83.4151 16.0928 83.4151 16.6349C83.4151 17.177 83.5249 17.6611 83.7443 18.087C83.9767 18.513 84.2931 18.8486 84.6932 19.0938C85.106 19.3261 85.5708 19.4423 86.0873 19.4423ZM96.5515 21.4946C95.7641 21.4946 95.0606 21.3204 94.4412 20.9719C93.8345 20.6233 93.357 20.1458 93.0082 19.5391C92.6729 18.9195 92.5049 18.2096 92.5049 17.4094V12.0075H94.6347V17.3126C94.6347 17.7643 94.7056 18.1515 94.8475 18.4742C95.0024 18.784 95.2221 19.0228 95.5058 19.1906C95.8029 19.3584 96.1514 19.4423 96.5515 19.4423C97.1709 19.4423 97.6422 19.2616 97.9649 18.9002C98.3005 18.5259 98.4682 17.9967 98.4682 17.3126V12.0075H100.598V17.4094C100.598 18.2225 100.424 18.9389 100.075 19.5585C99.7397 20.1651 99.2684 20.6427 98.6617 20.9912C98.0551 21.3268 97.3517 21.4946 96.5515 21.4946ZM105.876 21.301L101.636 12.0075H103.998L107.231 19.5778H105.837L109.09 12.0075H111.355L107.115 21.301H105.876ZM116.605 21.4946C115.676 21.4946 114.837 21.2881 114.088 20.875C113.353 20.4491 112.765 19.8683 112.326 19.1325C111.901 18.3968 111.688 17.5707 111.688 16.6543C111.688 15.7378 111.901 14.9182 112.326 14.1954C112.752 13.4596 113.327 12.8788 114.05 12.4529C114.785 12.0269 115.599 11.8139 116.489 11.8139C117.354 11.8139 118.116 12.014 118.774 12.4141C119.445 12.8143 119.968 13.3628 120.342 14.0598C120.729 14.7569 120.923 15.5507 120.923 16.4413C120.923 16.5962 120.91 16.7575 120.884 16.9253C120.871 17.0802 120.846 17.2545 120.807 17.4481H113.179V15.7056H119.703L118.91 16.4026C118.884 15.8346 118.774 15.357 118.58 14.9698C118.387 14.5826 118.109 14.2857 117.748 14.0792C117.399 13.8727 116.967 13.7694 116.451 13.7694C115.908 13.7694 115.437 13.8856 115.037 14.1179C114.637 14.3503 114.327 14.6794 114.108 15.1054C113.888 15.5184 113.779 16.0153 113.779 16.5962C113.779 17.177 113.895 17.6869 114.127 18.1257C114.36 18.5646 114.689 18.9066 115.115 19.1519C115.541 19.3842 116.031 19.5004 116.586 19.5004C117.064 19.5004 117.502 19.4165 117.903 19.2487C118.316 19.0809 118.664 18.8356 118.948 18.513L120.303 19.8876C119.852 20.4168 119.303 20.817 118.658 21.088C118.012 21.3591 117.328 21.4946 116.605 21.4946ZM122.63 21.301V12.0075H124.76V21.301H122.63ZM124.76 16.1315L124.024 15.7636C124.024 14.5891 124.282 13.6403 124.799 12.9175C125.328 12.1818 126.122 11.8139 127.18 11.8139C127.645 11.8139 128.064 11.8978 128.439 12.0656C128.813 12.2334 129.162 12.5045 129.484 12.8788L128.09 14.3115C127.922 14.1308 127.735 14.0018 127.529 13.9243C127.322 13.8469 127.083 13.8081 126.812 13.8081C126.219 13.8081 125.728 13.9953 125.341 14.3696C124.954 14.7439 124.76 15.3312 124.76 16.1315Z" fill="#4D585F"/>
</g>
</g>
</g>
</g>
</g>
</g>
</g>
<defs>
<clipPath id="clip0_9754_965">
<rect width="130" height="28" fill="white"/>
</clipPath>
</defs>
</svg>
