<svg width="130" height="28" viewBox="0 0 130 28" fill="none" xmlns="http://www.w3.org/2000/svg">
<g clip-path="url(#clip0_9754_793)">
<mask id="mask0_9754_793" style="mask-type:luminance" maskUnits="userSpaceOnUse" x="0" y="0" width="130" height="28">
<path d="M130 0H0V28H130V0Z" fill="white"/>
</mask>
<g mask="url(#mask0_9754_793)">
<mask id="mask1_9754_793" style="mask-type:luminance" maskUnits="userSpaceOnUse" x="0" y="0" width="130" height="28">
<path d="M130 0H0V28H130V0Z" fill="white"/>
</mask>
<g mask="url(#mask1_9754_793)">
<mask id="mask2_9754_793" style="mask-type:luminance" maskUnits="userSpaceOnUse" x="0" y="0" width="130" height="28">
<path d="M130 0H0V27.1304H130V0Z" fill="white"/>
</mask>
<g mask="url(#mask2_9754_793)">
<mask id="mask3_9754_793" style="mask-type:luminance" maskUnits="userSpaceOnUse" x="0" y="0" width="130" height="28">
<path d="M130 0H0V27.1304H130V0Z" fill="white"/>
</mask>
<g mask="url(#mask3_9754_793)">
<path d="M9.83608 26.5174C7.18906 26.4299 5.18875 25.8318 3.83516 24.7233C2.48158 23.5855 1.50399 22.3166 0.902391 20.9162C0.300797 19.4868 0 18.0428 0 16.5842C0 15.0672 0.285758 13.6085 0.857273 12.2083C1.45887 10.7789 2.43646 9.5098 3.79007 8.40125C5.17372 7.26352 6.91835 6.68007 9.02391 6.65088H23.6427C25.7483 6.68007 27.4778 7.26352 28.8314 8.40125C30.2152 9.5098 31.1928 10.7789 31.7643 12.2083C32.3657 13.6085 32.6665 15.0672 32.6665 16.5842C32.6665 18.0428 32.3657 19.4868 31.7643 20.9162C31.1626 22.3166 30.185 23.5855 28.8314 24.7233C27.4778 25.8318 25.4775 26.4299 22.8305 26.5174H9.83608ZM8.84344 12.5146C8.27192 12.5146 7.77562 12.7479 7.35448 13.2147C6.9334 13.6523 6.61753 14.1775 6.407 14.7901C6.22649 15.3735 6.13627 15.957 6.13627 16.5404C6.13627 17.153 6.22649 17.7657 6.407 18.3783C6.61753 18.9617 6.9334 19.4868 7.35448 19.9536C7.77562 20.3911 8.27192 20.6246 8.84344 20.6537H23.8231C24.3947 20.6246 24.891 20.3911 25.3121 19.9536C25.7332 19.4868 26.034 18.9617 26.2146 18.3783C26.425 17.7657 26.5303 17.153 26.5303 16.5404C26.5303 15.957 26.425 15.3735 26.2146 14.7901C26.034 14.1775 25.7332 13.6523 25.3121 13.2147C24.891 12.7479 24.3947 12.5146 23.8231 12.5146H8.84344Z" fill="#4D585F"/>
<path d="M66.5054 9.18907C66.5054 9.91836 66.2046 10.531 65.6029 11.0269C65.0317 11.4937 64.3248 11.7271 63.4825 11.7271H44.3968C44.0059 11.7271 43.69 11.8 43.4494 11.9459C43.2085 12.0918 43.0283 12.2522 42.9081 12.4272C42.7874 12.5731 42.7274 12.7044 42.7274 12.821C42.7274 12.9669 42.7874 13.1274 42.9081 13.3024C43.0283 13.4483 43.2085 13.5941 43.4494 13.74C43.69 13.8566 44.0059 13.9297 44.3968 13.9588H59.1511C61.0459 13.988 62.6102 14.3527 63.8434 15.0527C65.0766 15.7238 65.949 16.5259 66.4602 17.4595C67.0017 18.3639 67.2723 19.2827 67.2723 20.2162C67.2723 21.1206 67.0017 22.0396 66.4602 22.9731C65.9189 23.8775 65.0317 24.6796 63.7982 25.3798C62.595 26.0507 61.0459 26.3863 59.1511 26.3863C58.8201 26.4154 58.5795 26.43 58.429 26.43H40.9227C40.0804 26.43 39.3585 26.1967 38.7568 25.7299C38.1856 25.234 37.8998 24.6359 37.8998 23.9358C37.8998 23.2065 38.2003 22.5939 38.802 22.0978C39.3735 21.6312 40.0804 21.3978 40.9227 21.3978H59.5119C59.9632 21.4269 60.324 21.3686 60.5946 21.2228C60.8955 21.0768 61.1213 20.9164 61.2718 20.7413C61.4221 20.5663 61.4972 20.3913 61.4972 20.2162C61.4972 20.1287 61.4221 19.9829 61.2718 19.7787C61.1213 19.5453 60.8955 19.3703 60.5946 19.2535C60.324 19.1077 59.9632 19.0202 59.5119 18.9911H44.7128C42.968 18.9619 41.5244 18.6118 40.3813 17.9408C39.2382 17.2407 38.4261 16.4384 37.9447 15.5341C37.4636 14.6297 37.2227 13.7254 37.2227 12.821C37.2227 11.9167 37.4636 11.0269 37.9447 10.1517C38.4562 9.2474 39.2683 8.47433 40.3813 7.83255C41.5244 7.16158 42.968 6.79693 44.7128 6.73856C45.0134 6.70941 45.2391 6.69482 45.3896 6.69482H63.4825C64.3248 6.69482 65.0317 6.9428 65.6029 7.43871C66.2046 7.90547 66.5054 8.48893 66.5054 9.18907Z" fill="#4D585F"/>
<path d="M75.395 0C76.2071 0.0291726 76.8989 0.320899 77.4705 0.875177C78.042 1.40028 78.3428 2.05666 78.373 2.84432V24.2861C78.1924 26.0365 77.1997 26.9846 75.395 27.1304C74.5527 27.1304 73.8157 26.8678 73.1841 26.3427C72.5825 25.7885 72.2812 25.103 72.2812 24.2861V2.84432C72.3117 2.02749 72.6274 1.35652 73.229 0.831416C73.8304 0.277139 74.5527 0 75.395 0Z" fill="#4D585F"/>
<path d="M93.4414 26.5174C90.7944 26.4299 88.7943 25.8318 87.4408 24.7233C86.087 23.5855 85.1094 22.3166 84.508 20.9162C83.9063 19.4868 83.6055 18.0428 83.6055 16.5842C83.6055 15.0672 83.8912 13.6085 84.4628 12.2083C85.0644 10.7789 86.042 9.5098 87.3956 8.40125C88.7792 7.26352 90.5237 6.68007 92.6293 6.65088H107.248C109.354 6.68007 111.083 7.26352 112.437 8.40125C113.82 9.5098 114.798 10.7789 115.37 12.2083C115.971 13.6085 116.272 15.0672 116.272 16.5842C116.272 18.0428 115.971 19.4868 115.37 20.9162C114.768 22.3166 113.79 23.5855 112.437 24.7233C111.083 25.8318 109.083 26.4299 106.436 26.5174H93.4414ZM92.4491 12.5146C91.8775 12.5146 91.381 12.7479 90.9598 13.2147C90.5388 13.6523 90.2231 14.1775 90.0124 14.7901C89.8319 15.3735 89.7417 15.957 89.7417 16.5404C89.7417 17.153 89.8319 17.7657 90.0124 18.3783C90.2231 18.9617 90.5388 19.4868 90.9598 19.9536C91.381 20.3911 91.8775 20.6246 92.4491 20.6537H107.429C108 20.6246 108.496 20.3911 108.917 19.9536C109.339 19.4868 109.639 18.9617 109.82 18.3783C110.031 17.7657 110.136 17.153 110.136 16.5404C110.136 15.957 110.031 15.3735 109.82 14.7901C109.639 14.1775 109.339 13.6523 108.917 13.2147C108.496 12.7479 108 12.5146 107.429 12.5146H92.4491Z" fill="#4D585F"/>
<path d="M125.962 27.1305C127.746 27.1305 129.192 25.6846 129.192 23.9007C129.192 22.1169 127.746 20.6709 125.962 20.6709C124.178 20.6709 122.731 22.1169 122.731 23.9007C122.731 25.6846 124.178 27.1305 125.962 27.1305Z" fill="#4D585F"/>
</g>
</g>
</g>
</g>
</g>
<defs>
<clipPath id="clip0_9754_793">
<rect width="130" height="28" fill="white"/>
</clipPath>
</defs>
</svg>
