<svg width="130" height="30" viewBox="0 0 130 30" fill="none" xmlns="http://www.w3.org/2000/svg">
<g clip-path="url(#clip0_9754_715)">
<mask id="mask0_9754_715" style="mask-type:luminance" maskUnits="userSpaceOnUse" x="0" y="0" width="130" height="30">
<path d="M130 0H0V30H130V0Z" fill="white"/>
</mask>
<g mask="url(#mask0_9754_715)">
<mask id="mask1_9754_715" style="mask-type:luminance" maskUnits="userSpaceOnUse" x="0" y="0" width="130" height="30">
<path d="M130 0H0V30H130V0Z" fill="white"/>
</mask>
<g mask="url(#mask1_9754_715)">
<mask id="mask2_9754_715" style="mask-type:luminance" maskUnits="userSpaceOnUse" x="0" y="0" width="130" height="30">
<path d="M130 0H0V29.5935H130V0Z" fill="white"/>
</mask>
<g mask="url(#mask2_9754_715)">
<mask id="mask3_9754_715" style="mask-type:luminance" maskUnits="userSpaceOnUse" x="0" y="0" width="130" height="30">
<path d="M130 0H0V29.5935H130V0Z" fill="white"/>
</mask>
<g mask="url(#mask3_9754_715)">
<mask id="mask4_9754_715" style="mask-type:luminance" maskUnits="userSpaceOnUse" x="0" y="0" width="130" height="30">
<path d="M130 0H0V29.5935H130V0Z" fill="white"/>
</mask>
<g mask="url(#mask4_9754_715)">
<mask id="mask5_9754_715" style="mask-type:luminance" maskUnits="userSpaceOnUse" x="0" y="0" width="130" height="30">
<path d="M129.83 0H0V29.5935H129.83V0Z" fill="white"/>
</mask>
<g mask="url(#mask5_9754_715)">
<path d="M42.1636 23.3888C42.1636 18.3883 40.177 13.5927 36.6413 10.0568C33.1055 6.52094 28.3097 4.53452 23.3094 4.53452C18.3088 4.53452 13.5132 6.52094 9.97735 10.0568C6.44151 13.5927 4.45508 18.3883 4.45508 23.3888V0.95459" stroke="#4D585F" stroke-width="8.59178"/>
<path d="M23.3078 29.5934C26.7348 29.5934 29.5129 26.8153 29.5129 23.3883C29.5129 19.9613 26.7348 17.1831 23.3078 17.1831C19.8807 17.1831 17.1025 19.9613 17.1025 23.3883C17.1025 26.8153 19.8807 29.5934 23.3078 29.5934Z" fill="#4D585F"/>
<path d="M62.0049 23.7515V10.4956H64.2234V16.0741H70.5014V10.4956H72.7108V23.7515H70.5014V18.1545H64.2234V23.7515H62.0049ZM79.0199 24.0369C78.2835 24.0369 77.6758 23.9142 77.1972 23.6687C76.7186 23.4231 76.3381 23.1102 76.0558 22.7297C75.7735 22.3492 75.5647 21.9442 75.4299 21.5146C75.2946 21.0849 75.2058 20.6799 75.1629 20.2994C75.126 19.9128 75.1075 19.5999 75.1075 19.3605V13.8096H77.3538V18.5964C77.3538 18.9033 77.3751 19.25 77.418 19.6367C77.4609 20.0171 77.5593 20.3854 77.7127 20.7413C77.8724 21.0912 78.1053 21.3796 78.4125 21.6066C78.7252 21.8337 79.1455 21.9473 79.6735 21.9473C79.9558 21.9473 80.2351 21.9012 80.5114 21.8091C80.7872 21.7171 81.0357 21.5607 81.2569 21.3397C81.4837 21.1126 81.6648 20.8026 81.8001 20.4099C81.935 20.0171 82.0025 19.5201 82.0025 18.9186L83.3189 19.4801C83.3189 20.327 83.1531 21.0941 82.8219 21.7815C82.4967 22.4689 82.0148 23.0181 81.3766 23.4294C80.7382 23.8344 79.9526 24.0369 79.0199 24.0369ZM82.2695 23.7515V20.6677H82.0025V13.8096H84.2302V23.7515H82.2695ZM90.8025 24.0277C89.888 24.0277 89.0902 23.7975 88.4089 23.3373C87.728 22.877 87.2002 22.251 86.8256 21.4593C86.4513 20.6677 86.2643 19.7747 86.2643 18.7806C86.2643 17.7741 86.4513 16.8781 86.8256 16.0925C87.2062 15.3009 87.7433 14.6779 88.4366 14.2238C89.1301 13.7635 89.9462 13.5334 90.8853 13.5334C91.8304 13.5334 92.6221 13.7635 93.2604 14.2238C93.9048 14.6779 94.3926 15.3009 94.7242 16.0925C95.0554 16.8842 95.2213 17.7802 95.2213 18.7806C95.2213 19.7686 95.0554 20.6615 94.7242 21.4593C94.3926 22.251 93.8987 22.877 93.242 23.3373C92.5851 23.7975 91.7721 24.0277 90.8025 24.0277ZM91.1431 22.0393C91.7384 22.0393 92.217 21.9043 92.5791 21.6342C92.9473 21.358 93.2143 20.9745 93.38 20.4836C93.5519 19.9926 93.6378 19.425 93.6378 18.7806C93.6378 18.13 93.5519 17.5624 93.38 17.0776C93.2143 16.5865 92.9537 16.206 92.5976 15.936C92.2415 15.6598 91.7813 15.5218 91.2168 15.5218C90.6215 15.5218 90.1305 15.6691 89.7439 15.9637C89.3572 16.2521 89.0718 16.6449 88.8879 17.1419C88.7036 17.633 88.6117 18.1792 88.6117 18.7806C88.6117 19.3881 88.7004 19.9404 88.8786 20.4376C89.0626 20.9285 89.342 21.3182 89.7162 21.6066C90.0907 21.8951 90.5661 22.0393 91.1431 22.0393ZM93.6378 23.7515V16.7738H93.3616V10.4956H95.5986V23.7515H93.6378ZM102.018 24.0277C100.791 24.0277 99.7936 23.7515 99.0263 23.1992C98.2595 22.6468 97.7929 21.8705 97.6272 20.8702L99.8919 20.5204C100.008 21.0114 100.266 21.398 100.665 21.6803C101.064 21.9626 101.567 22.1037 102.175 22.1037C102.709 22.1037 103.12 21.9994 103.408 21.7907C103.703 21.576 103.85 21.2845 103.85 20.9163C103.85 20.6891 103.795 20.5081 103.684 20.3731C103.58 20.2319 103.347 20.0969 102.985 19.968C102.623 19.8392 102.068 19.6766 101.319 19.4801C100.484 19.2592 99.8212 19.0229 99.3302 18.7714C98.8393 18.5136 98.4864 18.2098 98.2716 17.86C98.0567 17.5102 97.9496 17.0868 97.9496 16.5897C97.9496 15.9698 98.1121 15.4297 98.4373 14.9694C98.7625 14.5092 99.2167 14.1564 99.7996 13.9108C100.383 13.6592 101.07 13.5334 101.862 13.5334C102.635 13.5334 103.319 13.6531 103.915 13.8925C104.516 14.1317 105.001 14.4724 105.369 14.9143C105.738 15.3561 105.964 15.8747 106.051 16.4699L103.786 16.8751C103.73 16.4516 103.537 16.1171 103.206 15.8716C102.88 15.6261 102.445 15.4881 101.899 15.4573C101.377 15.4267 100.957 15.5065 100.638 15.6967C100.318 15.8808 100.159 16.1417 100.159 16.4791C100.159 16.6694 100.223 16.832 100.352 16.9671C100.481 17.1021 100.739 17.2372 101.125 17.3721C101.518 17.5071 102.101 17.6728 102.874 17.8692C103.666 18.0717 104.298 18.3049 104.771 18.5689C105.249 18.8265 105.593 19.1365 105.802 19.4986C106.017 19.8606 106.123 20.2994 106.123 20.815C106.123 21.8153 105.759 22.6008 105.028 23.1716C104.304 23.7423 103.301 24.0277 102.018 24.0277ZM112.532 24.0277C111.537 24.0277 110.668 23.8036 109.926 23.3557C109.183 22.9077 108.606 22.2909 108.196 21.5054C107.79 20.7138 107.587 19.8054 107.587 18.7806C107.587 17.7373 107.797 16.8228 108.214 16.0373C108.632 15.2517 109.211 14.6381 109.954 14.1962C110.697 13.7543 111.556 13.5334 112.532 13.5334C113.531 13.5334 114.403 13.7574 115.145 14.2054C115.888 14.6534 116.465 15.2732 116.877 16.0649C117.288 16.8504 117.493 17.7557 117.493 18.7806C117.493 19.8116 117.284 20.7229 116.867 21.5146C116.456 22.3001 115.879 22.9169 115.137 23.3649C114.394 23.8068 113.525 24.0277 112.532 24.0277ZM112.532 21.9473C113.415 21.9473 114.071 21.6527 114.502 21.0635C114.931 20.4744 115.145 19.7134 115.145 18.7806C115.145 17.8171 114.928 17.0499 114.492 16.4791C114.057 15.9023 113.402 15.6138 112.532 15.6138C111.935 15.6138 111.445 15.7489 111.058 16.0189C110.678 16.2828 110.396 16.6541 110.212 17.1327C110.027 17.6053 109.935 18.1546 109.935 18.7806C109.935 19.744 110.154 20.5142 110.589 21.0912C111.031 21.6619 111.678 21.9473 112.532 21.9473ZM126.398 23.7515V18.9647C126.398 18.6517 126.376 18.3049 126.333 17.9245C126.29 17.544 126.189 17.1788 126.029 16.829C125.876 16.473 125.643 16.1815 125.33 15.9545C125.023 15.7274 124.606 15.6138 124.078 15.6138C123.795 15.6138 123.516 15.6598 123.24 15.7519C122.964 15.8439 122.713 16.0035 122.486 16.2307C122.265 16.4515 122.086 16.7584 121.952 17.1512C121.817 17.5378 121.749 18.0349 121.749 18.6425L120.433 18.0809C120.433 17.234 120.596 16.4669 120.92 15.7796C121.252 15.0923 121.736 14.546 122.375 14.141C123.013 13.7298 123.798 13.5242 124.731 13.5242C125.468 13.5242 126.076 13.6469 126.555 13.8925C127.033 14.1379 127.414 14.4509 127.696 14.8314C127.978 15.2119 128.187 15.6169 128.322 16.0465C128.457 16.4761 128.543 16.8842 128.58 17.2709C128.622 17.6514 128.644 17.9612 128.644 18.2006V23.7515H126.398ZM119.503 23.7515V13.8096H121.483V16.8934H121.749V23.7515H119.503Z" fill="#4D585F"/>
</g>
</g>
</g>
</g>
</g>
</g>
</g>
<defs>
<clipPath id="clip0_9754_715">
<rect width="130" height="30" fill="white"/>
</clipPath>
</defs>
</svg>
