<svg width="130" height="29" viewBox="0 0 130 29" fill="none" xmlns="http://www.w3.org/2000/svg">
<g clip-path="url(#clip0_9754_770)">
<mask id="mask0_9754_770" style="mask-type:luminance" maskUnits="userSpaceOnUse" x="0" y="0" width="130" height="29">
<path d="M130 0H0V29H130V0Z" fill="white"/>
</mask>
<g mask="url(#mask0_9754_770)">
<mask id="mask1_9754_770" style="mask-type:luminance" maskUnits="userSpaceOnUse" x="0" y="0" width="130" height="29">
<path d="M130 0H0V29H130V0Z" fill="white"/>
</mask>
<g mask="url(#mask1_9754_770)">
<mask id="mask2_9754_770" style="mask-type:luminance" maskUnits="userSpaceOnUse" x="0" y="0" width="130" height="29">
<path d="M130 0H0V28.3636H130V0Z" fill="white"/>
</mask>
<g mask="url(#mask2_9754_770)">
<mask id="mask3_9754_770" style="mask-type:luminance" maskUnits="userSpaceOnUse" x="0" y="0" width="130" height="29">
<path d="M130 0H0V28.3636H130V0Z" fill="white"/>
</mask>
<g mask="url(#mask3_9754_770)">
<path d="M0 0.0942383H1.89333L22.3801 28.344H18.8584L2.84005 6.19097V28.344H0V0.0942383Z" fill="#4D585F"/>
<path d="M32.5945 0.0751953C34.5661 0.0751953 36.4116 0.441545 38.1305 1.17334C39.8494 1.90588 41.347 2.90935 42.6238 4.18393C43.9006 5.45909 44.9053 6.95489 45.6384 8.67137C46.3715 10.3884 46.7384 12.2309 46.7384 14.2001C46.7384 16.1693 46.3673 18.0125 45.6255 19.729C44.8834 21.446 43.8733 22.9417 42.5959 24.2162C41.3179 25.4914 39.821 26.5015 38.1045 27.2458C36.3872 27.9907 34.5448 28.3629 32.5756 28.3629V25.5227C34.1153 25.5227 35.5732 25.2269 36.9494 24.6346C38.3252 24.0424 39.5305 23.2359 40.5659 22.2152C41.6008 21.1945 42.415 19.9976 43.0085 18.6236C43.6013 17.2498 43.8983 15.7817 43.8983 14.219C43.8983 12.6316 43.6013 11.1511 43.0085 9.77711C42.415 8.40327 41.6008 7.20627 40.5659 6.18555C39.5305 5.16498 38.3252 4.36493 36.9494 3.78512C35.5732 3.20528 34.1153 2.91538 32.5756 2.91538C30.9851 2.91538 29.4955 3.20586 28.1072 3.78627C26.7185 4.3674 25.5068 5.16845 24.4718 6.19088C23.4365 7.21332 22.6224 8.41277 22.0294 9.78847C21.4359 11.1647 21.1394 12.6475 21.1394 14.238H18.4131C18.4131 12.2689 18.7857 10.4263 19.5313 8.70915C20.2767 6.99268 21.288 5.49573 22.5648 4.21771C23.8416 2.94028 25.3393 1.93019 27.0582 1.18816C28.777 0.446257 30.6226 0.0751953 32.5945 0.0751953Z" fill="#4D585F"/>
<path d="M49.4268 0.0380859H51.32L71.8068 28.2878H68.2851L52.2668 6.13482V28.2878H49.4268V0.0380859Z" fill="#4D585F"/>
<path d="M74.5332 0.0751953H76.616L88.696 14.8817L100.587 0.0751953H104.146L89.7185 18.0627H87.9387L77.3735 5.52832V28.3629H74.5332V0.0751953Z" fill="#4D585F"/>
<path d="M129.405 0H106.722V2.84005H129.405V0Z" fill="#4D585F"/>
<path d="M129.442 15.1096H109.562V25.5234H129.442V28.3635H106.722V12.2695H129.442V15.1096Z" fill="#4D585F"/>
</g>
</g>
</g>
</g>
</g>
<defs>
<clipPath id="clip0_9754_770">
<rect width="130" height="29" fill="white"/>
</clipPath>
</defs>
</svg>
