<svg width="130" height="28" viewBox="0 0 130 28" fill="none" xmlns="http://www.w3.org/2000/svg">
<g clip-path="url(#clip0_9754_638)">
<mask id="mask0_9754_638" style="mask-type:luminance" maskUnits="userSpaceOnUse" x="0" y="0" width="130" height="28">
<path d="M130 0H0V28H130V0Z" fill="white"/>
</mask>
<g mask="url(#mask0_9754_638)">
<mask id="mask1_9754_638" style="mask-type:luminance" maskUnits="userSpaceOnUse" x="0" y="0" width="130" height="28">
<path d="M130 0H0V28H130V0Z" fill="white"/>
</mask>
<g mask="url(#mask1_9754_638)">
<mask id="mask2_9754_638" style="mask-type:luminance" maskUnits="userSpaceOnUse" x="0" y="0" width="130" height="28">
<path d="M130 0H0V28H130V0Z" fill="white"/>
</mask>
<g mask="url(#mask2_9754_638)">
<mask id="mask3_9754_638" style="mask-type:luminance" maskUnits="userSpaceOnUse" x="0" y="0" width="130" height="28">
<path d="M130 0H0V28H130V0Z" fill="white"/>
</mask>
<g mask="url(#mask3_9754_638)">
<mask id="mask4_9754_638" style="mask-type:luminance" maskUnits="userSpaceOnUse" x="0" y="0" width="130" height="28">
<path d="M130 0H0V28H130V0Z" fill="white"/>
</mask>
<g mask="url(#mask4_9754_638)">
<mask id="mask5_9754_638" style="mask-type:luminance" maskUnits="userSpaceOnUse" x="0" y="0" width="130" height="28">
<path d="M129.111 0H0V28H129.111V0Z" fill="white"/>
</mask>
<g mask="url(#mask5_9754_638)">
<path d="M37.7145 8.50727C37.7145 11.9102 39.7965 14.3514 43.7373 15.572L47.7152 16.7926C49.7598 17.4214 50.5407 18.3091 50.5407 20.0106C50.5407 22.3778 48.5331 23.8943 45.4102 23.8943C42.3616 23.8943 40.5027 22.4888 40.28 20.0846H35.6699C35.9673 25.078 39.5364 28 45.2615 28C51.1356 28 55.0391 24.6341 55.0391 19.6037C55.0391 16.1638 53.2175 13.9815 49.351 12.7609L45.4102 11.5403C43.2169 10.8375 42.2502 9.72788 42.2502 7.91544C42.2502 5.51124 44.0718 4.06868 47.046 4.06868C49.7972 4.06868 51.5817 5.51124 51.8418 7.91544H56.4148C56.1917 3.29193 52.3623 0 47.2321 0C41.5437 0 37.7145 3.36591 37.7145 8.50727Z" fill="#4D585F"/>
<path d="M65.9331 27.9634C70.097 27.9634 73.7404 25.4483 75.0044 21.6385H70.6918C69.9112 23.3769 68.2381 24.3756 66.1561 24.3756C63.3309 24.3756 61.8065 22.6371 61.8065 19.5301V19.4192L75.3019 19.3822L75.5249 18.0136C76.3799 12.5024 73.2943 8.7666 67.8663 8.7666C62.0669 8.7666 57.6055 13.5381 57.6055 19.7891C57.6055 24.8564 60.8028 27.9634 65.9331 27.9634ZM67.6062 12.3175C70.283 12.3175 71.8071 14.0189 71.3983 16.6081H62.2899C63.1449 14.0559 65.1898 12.3175 67.6062 12.3175Z" fill="#4D585F"/>
<path d="M77.8281 19.6781C77.8281 24.6345 81.3602 27.9634 86.6021 27.9634C92.6246 27.9634 97.3833 23.155 97.3833 17.052C97.3833 12.0955 93.8516 8.7666 88.6097 8.7666C82.6239 8.7666 77.8281 13.5751 77.8281 19.6781ZM82.2895 19.3452C82.2895 15.5724 85.0406 12.5764 88.3866 12.5764C91.1748 12.5764 92.922 14.4628 92.922 17.3848C92.922 21.1206 90.2082 24.1167 86.8622 24.1167C84.0367 24.1167 82.2895 22.2303 82.2895 19.3452Z" fill="#4D585F"/>
<path d="M114.012 9.24707L112.487 19.0489C111.967 22.2669 110.182 24.0793 107.543 24.0793C105.163 24.0793 103.899 22.3039 104.383 19.3448L106.019 9.24707H101.669L99.8844 20.3805C99.1779 24.6711 101.743 28 105.795 28C108.249 28 109.885 27.0753 111.484 25.041L111.446 27.5192H115.499L118.398 9.24707H114.012Z" fill="#4D585F"/>
<path d="M124.617 27.5191L129.004 0H124.617L120.268 27.5191H124.617Z" fill="#4D585F"/>
<path d="M19.7416 3.05023L13.9185 0L0.253239 13.483L0 13.7294L12.2009 20.3343L17.0074 15.343L10.8137 12.2211L19.7416 3.05023Z" fill="#4D585F"/>
<path d="M10.3164 24.0523L16.1396 27.1025L29.8131 13.6113L30.0591 13.372L17.8958 6.87793L13.0893 11.8692L19.2154 14.9111L10.3164 24.0523Z" fill="#4D585F"/>
</g>
</g>
</g>
</g>
</g>
</g>
</g>
<defs>
<clipPath id="clip0_9754_638">
<rect width="130" height="28" fill="white"/>
</clipPath>
</defs>
</svg>
