<svg width="130" height="37" viewBox="0 0 130 37" fill="none" xmlns="http://www.w3.org/2000/svg">
<g clip-path="url(#clip0_9754_860)">
<mask id="mask0_9754_860" style="mask-type:luminance" maskUnits="userSpaceOnUse" x="0" y="0" width="130" height="37">
<path d="M130 0H0V37H130V0Z" fill="white"/>
</mask>
<g mask="url(#mask0_9754_860)">
<mask id="mask1_9754_860" style="mask-type:luminance" maskUnits="userSpaceOnUse" x="0" y="0" width="130" height="37">
<path d="M130 0H0V37H130V0Z" fill="white"/>
</mask>
<g mask="url(#mask1_9754_860)">
<mask id="mask2_9754_860" style="mask-type:luminance" maskUnits="userSpaceOnUse" x="0" y="0" width="130" height="37">
<path d="M130 0H0V36.7677H130V0Z" fill="white"/>
</mask>
<g mask="url(#mask2_9754_860)">
<mask id="mask3_9754_860" style="mask-type:luminance" maskUnits="userSpaceOnUse" x="0" y="0" width="130" height="37">
<path d="M130 0H0V36.7677H130V0Z" fill="white"/>
</mask>
<g mask="url(#mask3_9754_860)">
<mask id="mask4_9754_860" style="mask-type:luminance" maskUnits="userSpaceOnUse" x="0" y="0" width="130" height="37">
<path d="M130 0H0V36.7677H130V0Z" fill="white"/>
</mask>
<g mask="url(#mask4_9754_860)">
<mask id="mask5_9754_860" style="mask-type:luminance" maskUnits="userSpaceOnUse" x="0" y="0" width="130" height="37">
<path d="M129.095 0H0V36.7677H129.095V0Z" fill="white"/>
</mask>
<g mask="url(#mask5_9754_860)">
<path d="M0 30.0758V6.28076H6.4135V15.3434H6.50645C6.73882 14.7392 7.07966 14.1853 7.52892 13.6819C7.97814 13.1707 8.53587 12.764 9.202 12.4619C9.86812 12.1521 10.6427 11.9972 11.5257 11.9972C12.7031 11.9972 13.8224 12.3109 14.8836 12.9383C15.9524 13.5656 16.82 14.5532 17.4861 15.901C18.16 17.2488 18.4969 18.9994 18.4969 21.1527C18.4969 23.2131 18.1754 24.9211 17.5325 26.2765C16.8975 27.632 16.0454 28.6429 14.9764 29.309C13.9153 29.9752 12.7496 30.3082 11.4792 30.3082C10.6427 30.3082 9.89525 30.1727 9.23685 29.9015C8.5862 29.6227 8.02851 29.2471 7.56377 28.7745C7.10675 28.2942 6.7543 27.7521 6.50645 27.1479H6.36702V30.0758H0ZM6.27408 21.1527C6.27408 22.0202 6.38639 22.7715 6.61104 23.4068C6.84341 24.0341 7.16871 24.5221 7.58701 24.8707C8.01303 25.2115 8.52038 25.3819 9.10903 25.3819C9.69772 25.3819 10.1973 25.2153 10.6078 24.8823C11.0261 24.5415 11.3437 24.0573 11.5606 23.4299C11.7852 22.7947 11.8975 22.0357 11.8975 21.1527C11.8975 20.2697 11.7852 19.5144 11.5606 18.887C11.3437 18.2519 11.0261 17.7678 10.6078 17.4347C10.1973 17.0939 9.69772 16.9234 9.10903 16.9234C8.52038 16.9234 8.01303 17.0939 7.58701 17.4347C7.16871 17.7678 6.84341 18.2519 6.61104 18.887C6.38639 19.5144 6.27408 20.2697 6.27408 21.1527Z" fill="#4D585F"/>
<path d="M26.155 30.3526C25.0164 30.3526 24.0095 30.1667 23.1341 29.7949C22.2666 29.4153 21.585 28.8422 21.0892 28.0754C20.5935 27.3085 20.3457 26.3326 20.3457 25.1475C20.3457 24.1714 20.5122 23.3388 20.8452 22.6494C21.1784 21.9522 21.6431 21.383 22.2395 20.9415C22.8359 20.4999 23.5291 20.163 24.3192 19.9307C25.1171 19.6982 25.9768 19.5472 26.8986 19.4775C27.8978 19.4 28.6995 19.3071 29.3036 19.1987C29.9155 19.0825 30.3571 18.9236 30.6282 18.7223C30.8993 18.5131 31.0349 18.2382 31.0349 17.8974V17.8509C31.0349 17.3861 30.8567 17.0298 30.5004 16.7819C30.144 16.5341 29.6871 16.4102 29.1294 16.4102C28.5175 16.4102 28.0178 16.5458 27.6306 16.8168C27.2511 17.0803 27.0226 17.4868 26.9451 18.0369H21.0427C21.1202 16.9524 21.4649 15.9532 22.0768 15.0391C22.6965 14.1174 23.5989 13.3816 24.784 12.8316C25.9691 12.2739 27.4486 11.9951 29.2223 11.9951C30.5004 11.9951 31.6468 12.1461 32.6614 12.4482C33.6761 12.7426 34.5399 13.157 35.2524 13.6915C35.965 14.2182 36.5072 14.8378 36.8791 15.5505C37.2586 16.2552 37.4483 17.0221 37.4483 17.8509V30.0737H31.4531V27.5642H31.3136C30.9574 28.2302 30.5237 28.7686 30.0125 29.1792C29.509 29.5897 28.9319 29.8879 28.2812 30.0737C27.6383 30.2596 26.9296 30.3526 26.155 30.3526ZM28.2464 26.3093C28.7344 26.3093 29.1914 26.2086 29.6173 26.0072C30.0512 25.8059 30.4036 25.5154 30.6747 25.1358C30.9458 24.7563 31.0813 24.2954 31.0813 23.7532V22.2659C30.9109 22.3357 30.7289 22.4016 30.5352 22.4636C30.3493 22.5255 30.148 22.5836 29.931 22.6378C29.722 22.6921 29.4973 22.7423 29.2571 22.7888C29.0248 22.8353 28.7809 22.878 28.5252 22.9166C28.0295 22.9941 27.6228 23.1218 27.3053 23.3C26.9954 23.4705 26.7631 23.6835 26.6082 23.9391C26.461 24.1869 26.3874 24.4658 26.3874 24.7756C26.3874 25.2714 26.5617 25.6509 26.9102 25.9142C27.2588 26.1776 27.7042 26.3093 28.2464 26.3093Z" fill="#4D585F"/>
<path d="M40.4199 30.0758V6.28076H46.8334V15.3434H46.9265C47.1589 14.7392 47.4997 14.1853 47.949 13.6819C48.398 13.1707 48.9557 12.764 49.6219 12.4619C50.2882 12.1521 51.0628 11.9972 51.9457 11.9972C53.123 11.9972 54.2427 12.3109 55.3036 12.9383C56.3728 13.5656 57.2398 14.5532 57.9061 15.901C58.5797 17.2488 58.9168 18.9994 58.9168 21.1527C58.9168 23.2131 58.5954 24.9211 57.9527 26.2765C57.3174 27.632 56.4653 28.6429 55.3967 29.309C54.3353 29.9752 53.1696 30.3082 51.8991 30.3082C51.0628 30.3082 50.3153 30.1727 49.6566 29.9015C49.0064 29.6227 48.4489 29.2471 47.984 28.7745C47.5269 28.2942 47.1744 27.7521 46.9265 27.1479H46.7872V30.0758H40.4199ZM46.6941 21.1527C46.6941 22.0202 46.8063 22.7715 47.031 23.4068C47.2636 24.0341 47.5888 24.5221 48.0072 24.8707C48.4333 25.2115 48.9406 25.3819 49.5292 25.3819C50.1175 25.3819 50.6174 25.2153 51.0279 24.8823C51.4463 24.5415 51.7639 24.0573 51.9803 23.4299C52.2051 22.7947 52.3174 22.0357 52.3174 21.1527C52.3174 20.2697 52.2051 19.5144 51.9803 18.887C51.7639 18.2519 51.4463 17.7678 51.0279 17.4347C50.6174 17.0939 50.1175 16.9234 49.5292 16.9234C48.9406 16.9234 48.4333 17.0939 48.0072 17.4347C47.5888 17.7678 47.2636 18.2519 47.031 18.887C46.8063 19.5144 46.6941 20.2697 46.6941 21.1527Z" fill="#4D585F"/>
<path d="M64.9605 36.7671C64.2248 36.7671 63.5238 36.7091 62.8579 36.5929C62.1915 36.4844 61.6069 36.3334 61.1032 36.1397L62.4976 31.5853C63.0242 31.7711 63.5045 31.8912 63.9384 31.9454C64.3796 31.9995 64.7555 31.9687 65.0652 31.8525C65.383 31.7363 65.6113 31.5155 65.7506 31.1901L65.89 30.8649L59.6162 12.2285H66.3083L69.1897 24.5907H69.3759L72.3036 12.2285H79.0425L72.536 31.562C72.2107 32.5457 71.7381 33.4288 71.1187 34.211C70.5068 35.0011 69.7012 35.6247 68.7019 36.0817C67.7026 36.5386 66.4558 36.7671 64.9605 36.7671Z" fill="#4D585F"/>
<path d="M87.2816 6.28076V30.0758H80.8682V6.28076H87.2816Z" fill="#4D585F"/>
<path d="M99.1468 18.4039C97.2103 18.4039 95.5529 18.0206 94.1741 17.2538C92.7953 16.4791 91.7381 15.4025 91.0024 14.0237C90.2666 12.6373 89.8984 11.03 89.8984 9.202C89.8984 7.37401 90.2666 5.77061 91.0024 4.39186C91.7381 3.00536 92.7953 1.9287 94.1741 1.16187C95.5529 0.387288 97.2103 0 99.1468 0C101.083 0 102.741 0.387288 104.12 1.16187C105.499 1.9287 106.556 3.00536 107.292 4.39186C108.027 5.77061 108.395 7.37401 108.395 9.202C108.395 11.03 108.027 12.6373 107.292 14.0237C106.556 15.4025 105.499 16.4791 104.12 17.2538C102.741 18.0206 101.083 18.4039 99.1468 18.4039ZM99.1933 13.6635C99.7355 13.6635 100.204 13.4815 100.599 13.1175C100.994 12.7534 101.3 12.2344 101.517 11.5606C101.734 10.8867 101.843 10.085 101.843 9.15552C101.843 8.21827 101.734 7.41657 101.517 6.75047C101.3 6.07655 100.994 5.55759 100.599 5.19355C100.204 4.82947 99.7355 4.64747 99.1933 4.64747C98.6201 4.64747 98.1284 4.82947 97.7177 5.19355C97.3071 5.55759 96.9938 6.07655 96.7769 6.75047C96.5599 7.41657 96.4514 8.21827 96.4514 9.15552C96.4514 10.085 96.5599 10.8867 96.7769 11.5606C96.9938 12.2344 97.3071 12.7534 97.7177 13.1175C98.1284 13.4815 98.6201 13.6635 99.1933 13.6635Z" fill="#4D585F"/>
<path d="M117.409 20.0352V30.0737H110.995V12.2275H117.083V15.6201H117.269C117.657 14.4892 118.338 13.6023 119.314 12.9594C120.298 12.3165 121.444 11.9951 122.753 11.9951C124.016 11.9951 125.112 12.2856 126.042 12.8665C126.979 13.4397 127.703 14.2297 128.214 15.2368C128.733 16.2437 128.989 17.394 128.981 18.6874V30.0737H122.568V20.0352C122.575 19.1522 122.351 18.4589 121.893 17.9555C121.444 17.452 120.817 17.2003 120.011 17.2003C119.485 17.2003 119.024 17.3165 118.629 17.5488C118.242 17.7735 117.943 18.0989 117.734 18.5248C117.525 18.9431 117.416 19.4465 117.409 20.0352Z" fill="#4D585F"/>
</g>
</g>
</g>
</g>
</g>
</g>
</g>
<defs>
<clipPath id="clip0_9754_860">
<rect width="130" height="37" fill="white"/>
</clipPath>
</defs>
</svg>
