<svg width="112" height="30" viewBox="0 0 112 30" fill="none" xmlns="http://www.w3.org/2000/svg">
<rect width="30" height="30" rx="5" fill="url(#paint0_linear_9855_484)"/>
<path d="M10.7495 8.24452C10.1933 10.6891 8.26364 12.6187 5.81905 13.175C5.38721 13.2732 5.07456 13.6471 5.07456 14.0899V15.9097C5.07456 16.4913 5.60068 16.9335 6.17316 16.8308C7.64396 16.567 9.00682 15.9865 10.1869 15.1631C11.1809 14.4706 12.0451 13.6064 12.7376 12.6124C13.6957 11.2393 14.3249 9.6188 14.5089 7.86873C14.5296 7.67219 14.3774 7.5 14.1798 7.5H11.6644C11.2216 7.50003 10.8478 7.81268 10.7495 8.24452Z" fill="white"/>
<path d="M15.4909 22.1323C15.4703 22.3283 15.6221 22.5 15.8191 22.5H18.335C18.7781 22.5 19.1521 22.1871 19.2501 21.7549C19.8051 19.3093 21.7348 17.3809 24.1807 16.8249C24.6127 16.7268 24.9254 16.3529 24.9254 15.91V14.0901C24.9254 13.5086 24.3995 13.0665 23.8271 13.169C22.3562 13.4323 20.9932 14.012 19.8131 14.8369C18.8191 15.5276 17.9549 16.3937 17.2624 17.3858C16.3041 18.7609 15.6748 20.3819 15.4909 22.1323Z" fill="white"/>
<path d="M18.3356 7.50003H15.8202C15.6226 7.50003 15.4704 7.67222 15.491 7.86876C15.6751 9.6188 16.3043 11.2393 17.2624 12.6124C17.9549 13.6064 18.8191 14.4706 19.8131 15.1631C20.9932 15.9865 22.3561 16.5671 23.8269 16.8308C24.3993 16.9335 24.9255 16.4913 24.9255 15.9097V14.0899C24.9255 13.6471 24.6128 13.2732 24.181 13.175C21.7364 12.6188 19.8068 10.6892 19.2505 8.24455C19.1522 7.81268 18.7784 7.50003 18.3356 7.50003Z" fill="white"/>
<path d="M12.7376 17.3858C12.0451 16.3937 11.1809 15.5276 10.187 14.837C9.00677 14.012 7.64384 13.4324 6.17297 13.169C5.60057 13.0666 5.07462 13.5086 5.07462 14.0902V15.91C5.07462 16.3529 5.38736 16.7268 5.81927 16.825C8.26521 17.3809 10.1949 19.3093 10.7499 21.755C10.848 22.1871 11.2219 22.5 11.665 22.5H14.1809C14.378 22.5 14.5297 22.3283 14.5091 22.1324C14.3252 20.3819 13.6959 18.7609 12.7376 17.3858Z" fill="white"/>
<path d="M35.792 23V19.736L43.808 10.352V10.064H36.056V7.16H47.6V10.712L39.824 19.832V20.096H47.912V23H35.792ZM55.9869 23.336C54.9469 23.336 54.0189 23.192 53.2029 22.904C52.4029 22.616 51.7229 22.2 51.1629 21.656C50.6029 21.112 50.1709 20.44 49.8669 19.64C49.5789 18.84 49.4349 17.936 49.4349 16.928C49.4349 15.936 49.5709 15.024 49.8429 14.192C50.1309 13.344 50.5469 12.616 51.0909 12.008C51.6349 11.384 52.2989 10.904 53.0829 10.568C53.8669 10.232 54.7549 10.064 55.7469 10.064C56.7069 10.064 57.5629 10.224 58.3149 10.544C59.0669 10.848 59.6909 11.312 60.1869 11.936C60.6989 12.56 61.0669 13.328 61.2909 14.24C61.5309 15.136 61.6189 16.168 61.5549 17.336L51.6669 17.432V15.536L59.5629 15.464L58.3389 16.424C58.4509 15.576 58.3949 14.88 58.1709 14.336C57.9469 13.792 57.6189 13.392 57.1869 13.136C56.7709 12.88 56.3069 12.752 55.7949 12.752C55.1869 12.752 54.6509 12.912 54.1869 13.232C53.7229 13.552 53.3629 14.024 53.1069 14.648C52.8509 15.256 52.7229 15.992 52.7229 16.856C52.7229 18.216 53.0189 19.216 53.6109 19.856C54.2189 20.496 55.0109 20.816 55.9869 20.816C56.4349 20.816 56.8109 20.76 57.1149 20.648C57.4349 20.52 57.6909 20.36 57.8829 20.168C58.0909 19.976 58.2509 19.76 58.3629 19.52C58.4909 19.28 58.5949 19.04 58.6749 18.8L61.6749 19.448C61.5309 20.04 61.3149 20.576 61.0269 21.056C60.7549 21.52 60.3869 21.928 59.9229 22.28C59.4589 22.616 58.8989 22.872 58.2429 23.048C57.6029 23.24 56.8509 23.336 55.9869 23.336ZM64.0762 23V15.368V10.4H66.9082L66.8842 14.168H67.3642C67.5722 13.256 67.8682 12.496 68.2522 11.888C68.6362 11.28 69.1162 10.824 69.6922 10.52C70.2842 10.216 70.9802 10.064 71.7802 10.064C73.2362 10.064 74.3402 10.576 75.0922 11.6C75.8602 12.624 76.2442 14.232 76.2442 16.424V23H72.7642V16.808C72.7642 15.464 72.5642 14.488 72.1642 13.88C71.7802 13.256 71.2122 12.944 70.4602 12.944C69.8202 12.944 69.2842 13.144 68.8522 13.544C68.4202 13.944 68.0922 14.472 67.8682 15.128C67.6602 15.768 67.5482 16.488 67.5322 17.288V23H64.0762ZM81.7687 23L77.5687 10.424H81.3847L84.0487 20.264H84.4327L87.0967 10.424H90.7687L86.5447 23H81.7687ZM92.6231 23V10.4H96.0791V23H92.6231ZM94.3751 8.504C93.7031 8.504 93.1831 8.368 92.8151 8.096C92.4631 7.808 92.2871 7.392 92.2871 6.848C92.2871 6.288 92.4631 5.864 92.8151 5.576C93.1831 5.288 93.7031 5.144 94.3751 5.144C95.0631 5.144 95.5831 5.288 95.9351 5.576C96.3031 5.864 96.4871 6.288 96.4871 6.848C96.4871 7.376 96.3031 7.784 95.9351 8.072C95.5831 8.36 95.0631 8.504 94.3751 8.504ZM98.0313 23L102.207 16.688L98.0313 10.4H102.015L104.319 15.152H104.727L107.031 10.4H110.991L106.815 16.688L111.039 23H107.079L104.727 18.224H104.319L102.015 23H98.0313Z" fill="#18181A"/>
<defs>
<linearGradient id="paint0_linear_9855_484" x1="1.11032" y1="0.984799" x2="27.2672" y2="28.7541" gradientUnits="userSpaceOnUse">
<stop stop-color="#18181A"/>
<stop offset="1" stop-color="#2D2D2D"/>
</linearGradient>
</defs>
</svg>
