<svg width="12" height="20" viewBox="0 0 12 20" fill="none" xmlns="http://www.w3.org/2000/svg">
<path d="M11.3985 7.37415C11.3126 7.25063 11.176 7.17207 11.0261 7.15999H7.14347L10.9609 0.623809C11.0461 0.493748 11.0461 0.325587 10.9609 0.195527C10.8779 0.0762467 10.7431 0.0036225 10.5978 1.67097e-08H5.40236C5.24406 -4.36276e-05 5.09807 0.085412 5.02061 0.223459L0.0579379 10.6515C-0.0193126 10.7772 -0.0193126 10.9356 0.0579379 11.0612C0.126896 11.1888 0.268347 11.2595 0.411762 11.2381H4.3223L1.52906 19.4782C1.46516 19.6607 1.54429 19.8626 1.71529 19.953C1.78477 19.9868 1.86154 20.0029 1.93875 19.9996C2.06379 19.9955 2.18302 19.9459 2.27394 19.8599L11.3985 7.82107C11.492 7.68677 11.492 7.50844 11.3985 7.37415Z" fill="white"/>
</svg>
