<svg width="43" height="40" viewBox="0 0 43 40" fill="none" xmlns="http://www.w3.org/2000/svg">
<path fill-rule="evenodd" clip-rule="evenodd" d="M21.3207 4.74876C32.5039 10.7215 33.8448 22.8413 27.0556 30.8361C22.6122 28.9759 19.3842 23.8962 19.3032 16.7059C16.9053 25.172 19.7896 33.0721 27.5366 35.7916C36.8872 28.4642 41.9222 19.1403 42.6414 7.82018C30.1456 -2.60672 12.4958 -2.60672 0 7.82018C0.865108 21.4342 7.97189 32.1607 21.3208 40C22.6651 39.2105 23.9464 38.3916 25.1642 37.5436C11.2436 32.4137 6.89264 15.3363 21.3207 4.74876Z" fill="url(#paint0_linear_9767_1052)"/>
<path fill-rule="evenodd" clip-rule="evenodd" d="M27.167 30.7769C33.9562 22.782 32.6154 10.6621 21.4321 4.68945C7.00408 15.2769 11.355 32.3545 25.2755 37.4843C26.095 36.9135 26.8858 36.3296 27.648 35.7323C19.9009 33.0128 17.0168 25.1127 19.4145 16.6466C19.4956 23.837 22.7237 28.9167 27.167 30.7769Z" fill="white"/>
<path fill-rule="evenodd" clip-rule="evenodd" d="M21.4321 4.68945C36.0677 17.7005 24.3248 34.5333 19.4146 16.6466C19.4401 18.9037 19.7758 20.9527 20.3619 22.7594C21.6424 26.7084 24.1184 29.5007 27.1671 30.7769C28.7577 28.9039 29.9023 26.8046 30.5784 24.6109C31.3633 22.064 31.5173 19.3901 31.004 16.7959C30.0751 12.086 26.9539 7.63858 21.4321 4.68945Z" fill="#163020"/>
<defs>
<linearGradient id="paint0_linear_9767_1052" x1="111.463" y1="40.5079" x2="111.463" y2="0.0447243" gradientUnits="userSpaceOnUse">
<stop stop-color="#007C21"/>
<stop offset="1" stop-color="#99CC33"/>
</linearGradient>
</defs>
</svg>
