<svg width="17" height="20" viewBox="0 0 17 20" fill="none" xmlns="http://www.w3.org/2000/svg">
<path fill-rule="evenodd" clip-rule="evenodd" d="M7.44165 0.697674C7.44165 0.312558 7.75421 0 8.13932 0C8.52444 0 8.837 0.312558 8.837 0.697674V4.4186C8.837 4.80372 8.52444 5.11628 8.13932 5.11628C7.75421 5.11628 7.44165 4.80372 7.44165 4.4186V0.697674Z" fill="white"/>
<path fill-rule="evenodd" clip-rule="evenodd" d="M13.4882 2.55803C13.4882 2.17291 13.8007 1.86035 14.1858 1.86035C14.5709 1.86035 14.8835 2.17291 14.8835 2.55803V6.74407C14.8835 7.12919 14.5709 7.44175 14.1858 7.44175C13.8007 7.44175 13.4882 7.12919 13.4882 6.74407V2.55803Z" fill="white"/>
<path fill-rule="evenodd" clip-rule="evenodd" d="M1.39514 2.55803C1.39514 2.17291 1.7077 1.86035 2.09282 1.86035C2.47793 1.86035 2.79049 2.17291 2.79049 2.55803V6.74407C2.79049 7.12919 2.47793 7.44175 2.09282 7.44175C1.7077 7.44175 1.39514 7.12919 1.39514 6.74407V2.55803Z" fill="white"/>
<path fill-rule="evenodd" clip-rule="evenodd" d="M10.0277 1.59977C10.3002 1.87233 10.3002 2.31419 10.0277 2.58674C9.75604 2.85837 9.31325 2.85837 9.04162 2.58674L8.1393 1.68442L7.23697 2.58674C6.96535 2.85837 6.52256 2.85837 6.25093 2.58674C5.97837 2.31419 5.97837 1.87233 6.25093 1.59977L7.64628 0.204419C7.91883 -0.0681395 8.35976 -0.0681395 8.63232 0.204419L10.0277 1.59977Z" fill="white"/>
<path fill-rule="evenodd" clip-rule="evenodd" d="M16.0742 3.46012C16.3467 3.73268 16.3467 4.17454 16.0742 4.4471C15.8026 4.71872 15.3598 4.71872 15.0881 4.4471L14.1858 3.54477L13.2835 4.4471C13.0119 4.71872 12.5691 4.71872 12.2974 4.4471C12.0249 4.17454 12.0249 3.73268 12.2974 3.46012L13.6928 2.06477C13.9653 1.79221 14.4063 1.79221 14.6788 2.06477L16.0742 3.46012Z" fill="white"/>
<path fill-rule="evenodd" clip-rule="evenodd" d="M3.98116 3.46012C4.25372 3.73268 4.25372 4.17454 3.98116 4.4471C3.70954 4.71872 3.26674 4.71872 2.99512 4.4471L2.09279 3.54477L1.19047 4.4471C0.918837 4.71872 0.476047 4.71872 0.204419 4.4471C-0.0681395 4.17454 -0.0681395 3.73268 0.204419 3.46012L1.59977 2.06477C1.87233 1.79221 2.31326 1.79221 2.58581 2.06477L3.98116 3.46012Z" fill="white"/>
<path fill-rule="evenodd" clip-rule="evenodd" d="M8.13923 5.58105C12.1178 5.58105 15.3485 8.81175 15.3485 12.7904C15.3485 16.7699 12.1178 19.9997 8.13923 19.9997C4.16063 19.9997 0.929932 16.7699 0.929932 12.7904C0.929932 8.81175 4.16063 5.58105 8.13923 5.58105ZM7.44156 9.06943V12.7904C7.44156 13.0359 7.56993 13.2629 7.78016 13.3894L10.1057 14.7848C10.436 14.9829 10.8648 14.875 11.063 14.5448C11.2611 14.2145 11.1541 13.7857 10.8239 13.5876L8.83691 12.3959V9.06943C8.83691 8.68431 8.52435 8.37175 8.13923 8.37175C7.75412 8.37175 7.44156 8.68431 7.44156 9.06943Z" fill="white"/>
</svg>
