<svg width="42" height="42" viewBox="0 0 42 42" fill="none" xmlns="http://www.w3.org/2000/svg">
<path d="M42 21C42 9.40203 32.5981 0 21 0C9.40203 0 0 9.40203 0 21C0 32.5981 9.40203 42 21 42C32.5981 42 42 32.5981 42 21Z" fill="url(#paint0_linear_9767_1030)"/>
<path fill-rule="evenodd" clip-rule="evenodd" d="M41.9991 22.6138C41.4902 22.7063 32.2395 22.6362 31.7388 22.507C31.2378 22.3779 30.7712 22.1416 30.3703 21.8147C29.9697 21.4876 29.6446 21.0777 29.4178 20.6129C29.1908 20.1482 29.0674 19.6398 29.0559 19.1227V15.4299C29.0466 14.5209 28.6788 13.6523 28.0327 13.0128C27.3866 12.3734 26.5142 12.0147 25.6052 12.0147C24.6961 12.0147 23.8237 12.3734 23.1777 13.0128C22.5315 13.6523 22.1638 14.5209 22.1543 15.4299V27.4019C21.8922 35.0027 10.9283 35.0135 10.6662 27.4019V23.7201C10.667 23.568 10.6376 23.417 10.5798 23.2762C10.5219 23.1354 10.4367 23.0074 10.329 22.8998C10.2213 22.7921 10.0934 22.7069 9.95259 22.649C9.81177 22.5912 9.66088 22.5617 9.50863 22.5625H0.00639892L0.00634766 20.2693H9.50863C10.4232 20.2713 11.2999 20.6354 11.9466 21.2822C12.5933 21.9289 12.9575 22.8055 12.9594 23.7201V27.4019C12.9689 28.311 13.3366 29.1797 13.9827 29.819C14.6288 30.4586 15.5011 30.8172 16.4103 30.8172C17.3193 30.8172 18.1916 30.4586 18.8379 29.819C19.4839 29.1797 19.8517 28.311 19.861 27.4019V15.4299C20.1232 7.82934 31.0871 7.82934 31.3494 15.4299V19.1227C31.3496 19.2742 31.3799 19.424 31.4383 19.5636C31.4966 19.7034 31.582 19.8301 31.6895 19.9367C31.7971 20.0433 31.9247 20.1275 32.065 20.1845C32.2052 20.2417 32.3553 20.2705 32.5067 20.2693H41.9991V22.6138Z" fill="#131515"/>
<defs>
<linearGradient id="paint0_linear_9767_1030" x1="6.14916e-07" y1="3.94396" x2="39.5285" y2="38.028" gradientUnits="userSpaceOnUse">
<stop stop-color="#F5DC4E"/>
<stop offset="1" stop-color="#FF7676"/>
</linearGradient>
</defs>
</svg>
