<svg width="18" height="20" viewBox="0 0 18 20" fill="none" xmlns="http://www.w3.org/2000/svg">
<path fill-rule="evenodd" clip-rule="evenodd" d="M5.88211 14.1464H2.11787C1.55626 14.1467 1.01776 14.37 0.620662 14.7671C0.223558 15.1642 0.00032569 15.7028 3.88592e-08 16.2644V16.6606C-0.000107484 17.2225 0.222923 17.7615 0.620064 18.159C1.01721 18.5566 1.55595 18.7801 2.11788 18.7806H13.313C13.4828 19.2003 13.7933 19.548 14.1913 19.7639C14.5893 19.9798 15.05 20.0506 15.4945 19.9641C15.9389 19.8776 16.3395 19.6392 16.6275 19.2898C16.9154 18.9403 17.0729 18.5016 17.0729 18.0489C17.0729 17.5961 16.9154 17.1574 16.6275 16.8079C16.3395 16.4585 15.9389 16.2201 15.4945 16.1336C15.05 16.0471 14.5893 16.1179 14.1913 16.3338C13.7933 16.5497 13.4828 16.8974 13.313 17.3171H2.11788C1.94405 17.3168 1.77747 17.2474 1.65474 17.1243C1.53201 17.0012 1.46319 16.8344 1.46339 16.6606V16.2644C1.46333 16.1784 1.48022 16.0933 1.51309 16.0138C1.54597 15.9344 1.59417 15.8622 1.65496 15.8014C1.71574 15.7407 1.78792 15.6925 1.86735 15.6596C1.94678 15.6267 2.03191 15.6098 2.11788 15.6099H7.56096C7.74904 15.6103 7.92988 15.5374 8.06503 15.4066C9.31623 14.1631 10.4179 12.7777 11.3476 11.2786C12.3516 9.63012 13.1708 7.67488 13.1708 5.75611C13.1891 4.24922 12.6086 2.79666 11.5568 1.71742C10.505 0.638176 9.06785 0.0204876 7.56099 0C6.05413 0.0204928 4.617 0.638183 3.5652 1.71742C2.5134 2.79666 1.93291 4.24922 1.95122 5.75611C1.95122 7.67487 2.77033 9.63011 3.77443 11.2786C4.39921 12.2893 5.10403 13.2483 5.88211 14.1464ZM15.1219 17.5611C15.2184 17.5611 15.3127 17.5897 15.3929 17.6433C15.4731 17.6969 15.5356 17.7731 15.5725 17.8622C15.6094 17.9514 15.6191 18.0494 15.6003 18.144C15.5815 18.2386 15.535 18.3256 15.4668 18.3938C15.3986 18.462 15.3117 18.5084 15.2171 18.5272C15.1225 18.5461 15.0244 18.5364 14.9353 18.4995C14.8461 18.4626 14.77 18.4001 14.7164 18.3199C14.6628 18.2397 14.6342 18.1454 14.6341 18.0489C14.6342 17.9195 14.6856 17.7955 14.777 17.704C14.8685 17.6125 14.9926 17.5611 15.1219 17.5611ZM7.56096 2.41871C6.99936 2.40626 6.44678 2.56141 5.97373 2.86436C5.50069 3.1673 5.12862 3.60432 4.90501 4.11963C4.6814 4.63494 4.61638 5.20519 4.71826 5.75762C4.82013 6.31004 5.08428 6.81959 5.47699 7.22124C5.8697 7.6229 6.37317 7.89845 6.92316 8.01274C7.47315 8.12703 8.04472 8.07487 8.56494 7.86291C9.08516 7.65096 9.53043 7.28883 9.84396 6.82272C10.1575 6.35662 10.325 5.80768 10.3252 5.24594C10.3333 4.50453 10.0467 3.79023 9.52837 3.26008C9.01002 2.72992 8.30236 2.42729 7.56096 2.41871Z" fill="#1D1D1D"/>
</svg>
