<svg width="41" height="40" viewBox="0 0 41 40" fill="none" xmlns="http://www.w3.org/2000/svg">
<path d="M21.7672 40L14.8667 25.1332L0 18.2328L40.0187 0L21.7672 40Z" fill="#2C3422"/>
<path d="M40.0187 0L0 18.2328L10.4535 18.2702C12.8471 18.2702 15.1846 17.5409 17.1482 16.1571L40.0187 0Z" fill="url(#paint0_linear_9767_1058)"/>
<path d="M28.3146 11.7894C29.4942 12.9694 30.5428 14.1868 31.479 15.4042C35.4673 20.6672 36.9091 25.949 34.6435 28.1965C33.3702 29.4701 31.142 29.5638 28.4831 28.7022C29.7751 28.9832 30.7862 28.8521 31.4041 28.234C32.7897 26.848 31.7224 23.383 29.0261 19.5435C27.9588 18.0451 26.6481 16.4905 25.1501 14.9734C19.7574 9.57934 13.8218 6.7699 11.8931 8.69905C11.2752 9.31713 11.1441 10.3472 11.425 11.6208C10.545 8.97999 10.6386 6.73244 11.9119 5.45883C14.6831 2.68685 22.0418 5.51502 28.3146 11.7894Z" fill="#EBF13C"/>
<path d="M34.2962 5.70352C37.8306 9.23788 39.364 13.4454 37.7371 15.0723C36.9891 15.8204 35.6987 15.9139 34.184 15.4464C34.9133 15.596 35.5117 15.5025 35.8857 15.1284C37.0264 13.9877 35.4743 10.603 32.4449 7.57355C32.3327 7.46135 32.2205 7.34915 32.1083 7.25565C29.1536 4.4319 25.9746 3.02937 24.8712 4.13269C24.5159 4.488 24.4224 5.08641 24.572 5.83442C24.1045 4.3197 24.1793 3.02937 24.946 2.28136C26.0681 1.15934 28.3682 1.51465 30.8366 2.97327C31.9774 3.64649 33.1742 4.5628 34.2962 5.70352Z" fill="#EBF13C"/>
<path d="M14.8667 25.1328L16.5497 25.9183C18.1766 26.6663 19.3547 28.1623 19.7101 29.9201L21.7671 39.9996L14.8667 25.1328Z" fill="url(#paint1_linear_9767_1058)"/>
<defs>
<linearGradient id="paint0_linear_9767_1058" x1="48.6769" y1="36.3174" x2="15.3131" y2="4.65575" gradientUnits="userSpaceOnUse">
<stop stop-color="white"/>
<stop offset="1" stop-color="white" stop-opacity="0"/>
</linearGradient>
<linearGradient id="paint1_linear_9767_1058" x1="17.7316" y1="20.2354" x2="18.5827" y2="37.9387" gradientUnits="userSpaceOnUse">
<stop stop-color="#A0A0A0"/>
<stop offset="1" stop-color="white" stop-opacity="0"/>
</linearGradient>
</defs>
</svg>
