<svg width="10" height="10" viewBox="0 0 10 10" fill="none" xmlns="http://www.w3.org/2000/svg">
<path fill-rule="evenodd" clip-rule="evenodd" d="M0.209135 0.218069C0.343085 0.0841554 0.524735 0.00893376 0.714135 0.00893376C0.903534 0.00893376 1.08518 0.0841554 1.21913 0.218069L4.99982 3.99877L8.78053 0.218069C8.84645 0.149841 8.92524 0.0954267 9.01238 0.057991C9.09953 0.0205554 9.19331 0.000855366 9.2881 2.67965e-05C9.38295 -0.000794631 9.47703 0.0172768 9.56481 0.053191C9.6526 0.0891052 9.73231 0.142148 9.79938 0.209212C9.86645 0.276276 9.91952 0.356026 9.95545 0.443812C9.99131 0.531597 10.0094 0.625654 10.0086 0.720497C10.0077 0.81534 9.98802 0.909068 9.9506 0.996211C9.91317 1.08335 9.85874 1.16217 9.79052 1.22806L6.00982 5.00877L9.79052 8.78947C9.92067 8.92419 9.99267 9.10462 9.99102 9.2919C9.98938 9.47919 9.91431 9.65833 9.78181 9.79076C9.64938 9.92319 9.47024 9.99833 9.28295 9.99997C9.09567 10.0016 8.91524 9.92962 8.78053 9.79947L4.99982 6.01877L1.21913 9.79947C1.08442 9.92962 0.903991 10.0016 0.716706 9.99997C0.529421 9.99833 0.350271 9.92319 0.217835 9.79076C0.0854 9.65833 0.0102787 9.47919 0.0086573 9.2919C0.00702873 9.10462 0.0790212 8.92419 0.209135 8.78947L3.98982 5.00877L0.209135 1.22806C0.0752284 1.09412 0 0.912468 0 0.723061C0 0.533662 0.0752284 0.352012 0.209135 0.218069Z" fill="#FF0D0D"/>
</svg>
