<svg width="9" height="14" viewBox="0 0 9 14" fill="none" xmlns="http://www.w3.org/2000/svg">
<path d="M0.36891 12.8983C0.247541 12.7712 0.152468 12.6215 0.0891846 12.4577C0.0259048 12.2937 -0.00420695 12.1189 0.000448292 11.9433C0.00510356 11.7677 0.044434 11.5948 0.116312 11.4344C0.188186 11.2742 0.29106 11.1296 0.418989 11.0092L4.92498 6.74895L0.651046 2.25591C0.407192 1.99877 0.275455 1.65529 0.284846 1.30103C0.294238 0.946772 0.443989 0.610759 0.701125 0.366893C0.95826 0.123039 1.30175 -0.0086851 1.656 0.000706509C1.83147 0.00535822 2.00416 0.0445081 2.16441 0.11593C2.32479 0.187356 2.46945 0.289648 2.59014 0.416972L7.77024 5.87921C7.89165 6.00623 7.98671 6.15599 8.04996 6.31981C8.1132 6.48376 8.14336 6.65855 8.13871 6.83415C8.13405 7.00975 8.09467 7.1827 8.02283 7.34307C7.951 7.50331 7.84813 7.64782 7.72017 7.76823L2.25793 12.9483C2.1309 13.0697 1.98115 13.1648 1.81733 13.2281C1.65337 13.2913 1.47858 13.3214 1.30299 13.3168C1.12739 13.3121 0.954439 13.2728 0.794067 13.2009C0.633829 13.1291 0.489322 13.0262 0.36891 12.8983Z" fill="#10B981"/>
</svg>
