<svg width="40" height="34" viewBox="0 0 40 34" fill="none" xmlns="http://www.w3.org/2000/svg">
<path d="M36.7362 3.24038C34.9662 1.4673 32.6459 0.34897 30.1562 0.0691091C27.6666 -0.210742 25.1558 0.364523 23.0364 1.70039L27.4764 6.22035C27.6536 6.41665 27.7903 6.64618 27.8784 6.89566C27.9664 7.14513 28.0042 7.4096 27.9894 7.67374C27.9745 7.93789 27.9071 8.19645 27.7916 8.43447C27.6761 8.67247 27.5146 8.8852 27.3163 9.06033C26.9465 9.38646 26.4694 9.56453 25.9764 9.56032C25.6938 9.56248 25.4141 9.50477 25.1556 9.39102C24.897 9.27726 24.6656 9.11003 24.4764 8.90033L18.8364 3.24038C18.0276 2.43234 17.0961 1.75734 16.0764 1.24039C13.996 0.174588 11.6317 -0.20593 9.32186 0.1533C7.01206 0.512517 4.87503 1.59307 3.21651 3.24038C1.14113 5.65611 0 8.7355 0 11.9204C0 15.1051 1.14113 18.1846 3.21651 20.6003C6.93647 24.6001 15.9764 33.8601 20.0364 33.8601C23.1963 33.8601 29.3962 28.2403 33.6961 23.8603C34.7762 22.7803 35.6963 21.8603 36.4963 20.9602L36.7962 20.6402C38.8741 18.2146 40.011 15.123 39.9999 11.9291C39.989 8.73528 38.8308 5.65167 36.7362 3.24038ZM23.9764 20.4402H21.9764V22.4402C21.9764 22.9705 21.7657 23.4794 21.3906 23.8545C21.0155 24.2296 20.5068 24.4402 19.9764 24.4402C19.4459 24.4402 18.9372 24.2296 18.5622 23.8545C18.1871 23.4794 17.9763 22.9705 17.9763 22.4402V20.4402H15.9764C15.446 20.4402 14.9372 20.2296 14.5622 19.8545C14.1871 19.4794 13.9764 18.9707 13.9764 18.4403C13.9764 17.9099 14.1871 17.4011 14.5622 17.0261C14.9372 16.651 15.446 16.4402 15.9764 16.4402H17.9763V14.4404C17.9763 13.9098 18.1871 13.4011 18.5622 13.026C18.9372 12.651 19.4459 12.4403 19.9764 12.4403C20.5068 12.4403 21.0155 12.651 21.3906 13.026C21.7657 13.4011 21.9764 13.9098 21.9764 14.4404V16.4402H23.9764C24.5068 16.4402 25.0155 16.651 25.3906 17.0261C25.7655 17.4011 25.9764 17.9099 25.9764 18.4403C25.9764 18.9707 25.7655 19.4794 25.3906 19.8545C25.0155 20.2296 24.5068 20.4402 23.9764 20.4402Z" fill="url(#paint0_linear_9767_1041)"/>
<defs>
<linearGradient id="paint0_linear_9767_1041" x1="20" y1="0" x2="20" y2="33.8601" gradientUnits="userSpaceOnUse">
<stop stop-color="#1D9FD7"/>
<stop offset="1" stop-color="#0047A4"/>
</linearGradient>
</defs>
</svg>
