<svg width="17" height="18" viewBox="0 0 17 18" fill="none" xmlns="http://www.w3.org/2000/svg">
<path d="M15.2468 2.33304C14.1069 2.21227 12.9849 1.95869 11.9038 1.57745C10.9121 1.22696 9.96061 0.771418 9.06571 0.218586C8.83228 0.0756465 8.56389 0 8.29017 0C8.01645 0 7.74806 0.0756465 7.51463 0.218586C6.61974 0.77143 5.66829 1.22698 4.67651 1.57745C3.59543 1.9587 2.47349 2.21229 1.33354 2.33306C0.967651 2.37063 0.628718 2.54262 0.382364 2.81573C0.13601 3.08885 -0.000238065 3.44366 3.12266e-07 3.81147V8.22891C0.000587424 9.85888 0.436739 11.4591 1.26332 12.8639C2.0899 14.2688 3.27688 15.4272 4.70142 16.2193L7.56694 17.8111C7.78772 17.9349 8.03658 17.9999 8.2897 18C8.54282 18.0001 8.79172 17.9352 9.01257 17.8115L11.8789 16.2193C13.3035 15.4272 14.4904 14.2688 15.317 12.8639C16.1436 11.4591 16.5798 9.85888 16.5803 8.22891V3.81147C16.5806 3.44366 16.4443 3.08884 16.198 2.81572C15.9516 2.54259 15.6127 2.3706 15.2468 2.33304Z" fill="#0DB561"/>
<path d="M7.6948 11.7301C7.44484 11.7304 7.20357 11.6384 7.01724 11.4718L4.59429 9.31834C4.49374 9.22948 4.41172 9.12166 4.35292 9.00104C4.29411 8.88043 4.25969 8.7494 4.25161 8.61546C4.24353 8.48152 4.26195 8.3473 4.30583 8.22049C4.34971 8.09368 4.41818 7.97678 4.50731 7.87648C4.59645 7.77617 4.7045 7.69444 4.82527 7.63597C4.94604 7.57749 5.07717 7.54342 5.21113 7.53571C5.34509 7.52799 5.47926 7.54678 5.60595 7.591C5.73264 7.63523 5.84935 7.70401 5.94941 7.79342L7.63003 9.28679L10.9896 5.70341C11.1748 5.50642 11.4305 5.3909 11.7007 5.38218C11.971 5.37347 12.2336 5.47226 12.4311 5.65691C12.6285 5.84206 12.7444 6.09798 12.7532 6.36848C12.7621 6.63899 12.6633 6.90196 12.4784 7.09964L8.43962 11.4079C8.34433 11.51 8.229 11.5913 8.10083 11.6467C7.97267 11.7021 7.83444 11.7305 7.6948 11.7301Z" fill="white"/>
<path d="M8.29017 18.0001C8.03692 17.9998 7.78794 17.9348 7.56694 17.8111L4.70142 16.2194C3.27693 15.4273 2.08998 14.2689 1.2634 12.8642C0.436818 11.4594 0.000640207 9.85926 3.29034e-07 8.22935V3.81152C-0.000244368 3.44371 0.136001 3.08889 0.382356 2.81577C0.62871 2.54265 0.967646 2.37065 1.33354 2.33309C2.47349 2.21233 3.59543 1.95875 4.67651 1.57751C5.66775 1.22718 6.61866 0.771773 7.51297 0.219057C7.74697 0.0759717 8.01595 0.000292747 8.29023 0.000366264C8.56451 0.000439782 8.83345 0.0762628 9.06737 0.219473C9.96179 0.771892 10.9127 1.22715 11.9038 1.57751C12.9849 1.95875 14.1069 2.21235 15.2468 2.33312C15.6127 2.37068 15.9516 2.54267 16.198 2.81579C16.4443 3.0889 16.5806 3.44372 16.5803 3.81152V8.22938C16.5797 9.85928 16.1435 11.4594 15.3169 12.8642C14.4904 14.2689 13.3034 15.4273 11.8789 16.2194L9.01257 17.8116C8.79179 17.935 8.54311 17.9999 8.29017 18.0001ZM8.29017 1.2744C8.2527 1.27423 8.21591 1.28443 8.18389 1.30388C7.21195 1.90407 6.17867 2.39913 5.10164 2.77979C3.92665 3.19443 2.70715 3.47004 1.46805 3.601C1.4154 3.60557 1.36639 3.62974 1.33071 3.66873C1.29504 3.70772 1.2753 3.75868 1.27541 3.81152V8.22938C1.27591 9.63183 1.65122 11.0087 2.36247 12.2174C3.07373 13.4261 4.09509 14.4228 5.32085 15.1042L8.18721 16.6964C8.2185 16.714 8.25379 16.7233 8.2897 16.7234C8.32561 16.7235 8.36094 16.7143 8.39231 16.6968L11.2595 15.1043C12.4853 14.4228 13.5066 13.4261 14.2179 12.2174C14.9291 11.0087 15.3044 9.63184 15.3049 8.22938V3.81152C15.305 3.75868 15.2853 3.70773 15.2496 3.66875C15.2139 3.62976 15.1649 3.6056 15.1123 3.60103C13.8732 3.47006 12.6537 3.19444 11.4787 2.77979C10.4017 2.39912 9.36839 1.90447 8.39645 1.30427C8.36454 1.28452 8.3277 1.27417 8.29017 1.2744Z" fill="#1A352B"/>
</svg>
