<svg width="37" height="42" viewBox="0 0 37 42" fill="none" xmlns="http://www.w3.org/2000/svg">
<path fill-rule="evenodd" clip-rule="evenodd" d="M34.129 8.93893C29.376 6.24083 18.3311 -0.028976 17.9094 0.00010079C14.4253 1.81707 11.0325 3.80541 7.64283 5.79189C5.10799 7.27741 2.57493 8.7619 0.00673391 10.1729C0.0117193 12.192 0.00815831 14.2111 0.00459727 16.2303C-0.0043053 21.278 -0.0132079 26.3258 0.111428 31.3735C3.50863 33.2358 6.84231 35.2613 10.1648 37.2799C11.45 38.0609 12.7335 38.8404 14.0183 39.6095C14.2404 39.7397 14.5944 39.9674 15.0066 40.2325C16.0844 40.9257 17.5587 41.8738 18.1014 42C20.0563 40.8128 22.0293 39.6674 24.0028 38.5219C25.3934 37.7146 26.7846 36.9073 28.1696 36.0848C29.2161 35.4678 30.2573 34.8371 31.2996 34.206C32.8809 33.2481 34.465 32.2884 36.074 31.3735C36.0274 24.266 36.0332 17.1584 36.0915 10.0508C35.78 9.87614 35.0807 9.47912 34.129 8.93893ZM19.9362 6.07773C19.0144 5.4141 17.9086 4.61804 17.421 4.50193C16.6183 5.39184 15.7109 6.07236 14.7337 6.77031L14.7163 18.4612C12.4131 19.7408 10.1272 21.0495 7.85885 22.3872C7.61087 22.5336 7.35721 22.678 7.10183 22.8234C6.26108 23.3023 5.40178 23.7916 4.66569 24.3938C4.66961 24.6374 4.66116 25.0542 4.65087 25.5612C4.6155 27.307 4.5584 30.1229 4.90996 30.6231C5.25896 30.6929 5.48578 30.6406 5.79987 30.5184C6.66244 30.1735 9.0121 28.7642 11.4252 27.317C14.3817 25.5437 17.4335 23.7134 17.9619 23.7134C18.1443 23.7134 18.3944 23.8602 18.5852 23.972C18.6317 23.9993 18.6746 24.0245 18.7122 24.045C21.5156 25.6387 24.3308 27.1973 27.1577 28.7212C27.5562 28.9427 27.9547 29.1849 28.3558 29.4285C29.0607 29.8566 29.7736 30.2895 30.5079 30.6231C30.7694 30.7454 30.944 30.7629 31.2233 30.6929C31.7147 30.2015 31.6297 27.8441 31.5779 26.4063C31.5653 26.0582 31.5546 25.7637 31.5546 25.5628V24.4811C28.1171 22.4221 24.6797 20.3632 21.2074 18.374C21.0256 15.8965 21.0509 13.3894 21.0764 10.8865C21.0899 9.54644 21.1035 8.20755 21.0852 6.875C20.8167 6.71155 20.3998 6.41137 19.9362 6.07773Z" fill="url(#paint0_linear_9767_1035)"/>
<defs>
<linearGradient id="paint0_linear_9767_1035" x1="4.28957" y1="3.70488e-07" x2="36.9324" y2="35.8729" gradientUnits="userSpaceOnUse">
<stop stop-color="#3F3CBB"/>
<stop offset="1" stop-color="#6366F1"/>
</linearGradient>
</defs>
</svg>
