<svg width="20" height="19" viewBox="0 0 20 19" fill="none" xmlns="http://www.w3.org/2000/svg">
<path fill-rule="evenodd" clip-rule="evenodd" d="M4.12933 3.54821C4.12933 5.50817 5.71808 7.09688 7.67804 7.09688C9.63804 7.09688 11.2268 5.50817 11.2268 3.54821C11.2268 1.58879 9.63804 0 7.67804 0C5.71812 0 4.12933 1.58879 4.12933 3.54821ZM15.8333 10.6667C18.1345 10.6667 20 12.5321 20 14.8333C20 17.1345 18.1345 19 15.8333 19C13.5322 19 11.6667 17.1345 11.6667 14.8333C11.6667 12.5322 13.5322 10.6667 15.8333 10.6667ZM14.6967 16.6344C14.9526 16.8758 15.1952 17.0583 15.5484 17.1206L15.5561 17.4392C15.5599 17.5996 15.693 17.7266 15.8535 17.7229C16.0139 17.7191 16.1409 17.586 16.1372 17.4255L16.1297 17.1154C16.7395 16.9953 17.2452 16.4963 17.2452 15.8521C17.2452 15.0932 16.5588 14.5601 15.8333 14.5601C15.4293 14.5601 15.0048 14.288 15.0048 13.8515C15.0048 13.4158 15.4298 13.1417 15.8333 13.1417C16.0278 13.1417 16.4746 13.3058 16.5845 13.4729C16.6725 13.6069 16.8526 13.6441 16.9867 13.556C17.1207 13.468 17.1579 13.2879 17.0698 13.1539C16.8814 12.8673 16.4493 12.6706 16.1194 12.5965L16.1106 12.2276C16.1068 12.0672 15.9737 11.9402 15.8133 11.9439C15.6528 11.9477 15.5258 12.0808 15.5295 12.2413L15.5378 12.589C14.9272 12.7083 14.4215 13.2067 14.4215 13.8515C14.4215 14.6104 15.1078 15.1435 15.8333 15.1435C16.2374 15.1435 16.6619 15.4155 16.6619 15.8521C16.6619 16.2887 16.2374 16.5608 15.8333 16.5608C15.495 16.5608 15.3323 16.434 15.0955 16.2106C14.9784 16.1005 14.7943 16.1061 14.6842 16.2232C14.574 16.3401 14.5797 16.5243 14.6967 16.6344ZM12.6116 18.3232C11.672 17.4553 11.0833 16.2131 11.0833 14.8333C11.0833 13.0869 12.0263 11.5607 13.4307 10.7354C12.9018 10.1377 12.2814 9.62275 11.5912 9.21304L7.67804 15.172L3.76504 9.21321C1.51117 10.551 0 13.0088 0 15.8198C0 18.9176 8.19504 19.7517 12.6116 18.3232ZM9.10021 8.88213L8.83258 9.70575C8.79275 9.82842 8.71675 9.92879 8.61821 9.99708L8.91667 12.2231L7.67804 14.1093L6.43942 12.2231L6.73787 9.99704C6.63933 9.92875 6.56337 9.82838 6.5235 9.70571L6.25588 8.88208C6.19813 8.70438 6.22638 8.52617 6.33621 8.37496C6.44604 8.22375 6.60683 8.14188 6.79371 8.14188H8.56238C8.74925 8.14188 8.91 8.22379 9.01988 8.37496C9.12975 8.52621 9.15796 8.70442 9.10021 8.88213Z" fill="white"/>
</svg>
