<svg width="16" height="20" viewBox="0 0 16 20" fill="none" xmlns="http://www.w3.org/2000/svg">
<path d="M6.08333 20.0003H9.75C10.75 20.0003 11.5833 19.167 11.5833 18.167V16.667H4.25V18.167C4.25 19.167 5.08333 20.0003 6.08333 20.0003Z" fill="#1D1D1D"/>
<path d="M15.8333 7.91667C15.8333 3.5 12.25 0 7.91667 0C3.58334 0 0 3.58334 0 7.91667C0 10.9167 1.75 13.5833 4.25 14.9167H11.6667C14.1667 13.6667 15.8333 11 15.8333 7.91667ZM5.41667 9.00001C5.41667 9.41667 5 9.83334 4.58334 9.83334C4.08334 9.83334 3.75 9.41667 3.75 9.00001V8.33334C3.75 7.83334 4.08334 7.50001 4.58334 7.50001C5 7.50001 5.41667 7.83334 5.41667 8.33334V9.00001ZM8.75001 9.00001C8.75001 9.41667 8.33334 9.83334 7.91667 9.83334C7.41667 9.83334 7.08334 9.41667 7.08334 9.00001V5.58334C7.08334 5.08334 7.41667 4.75 7.91667 4.75C8.33334 4.75 8.75001 5.08334 8.75001 5.58334V9.00001ZM10.4167 9.00001V7.25001C10.4167 6.83334 10.75 6.41667 11.25 6.41667C11.6667 6.41667 12.0833 6.83334 12.0833 7.25001V9.08334C12.0833 9.50001 11.6667 9.91667 11.25 9.91667C10.75 9.83334 10.4167 9.50001 10.4167 9.00001Z" fill="#1D1D1D"/>
</svg>
