<svg width="44" height="42" viewBox="0 0 44 42" fill="none" xmlns="http://www.w3.org/2000/svg">
<path d="M21.8985 0C23.1069 0.477088 28.2595 2.82278 28.2595 7.89582C28.2595 12.4759 25.6753 17.2388 22.789 20.7932C22.6458 20.7375 22.6935 21.5009 22.6935 11.8716C22.6935 11.4324 22.3375 11.0764 21.8985 11.0764C21.4592 11.0764 21.1032 11.4324 21.1032 11.8716V20.157C20.143 18.717 19.0631 17.3604 17.8749 16.1018C16.4325 13.6004 15.6295 10.7818 15.5372 7.89582C15.5372 2.83867 20.6898 0.485049 21.8985 0ZM22.6935 23.0036C22.6935 23.4428 22.3375 23.7989 21.8985 23.7989C21.4592 23.7989 21.1032 23.4428 21.1032 23.0036C21.1032 22.5646 21.4592 22.2085 21.8985 22.2085C22.3375 22.2085 22.6935 22.5646 22.6935 23.0036ZM5.56603 24.3871C0.755392 22.797 0.10337 17.1911 0 15.895C0.79515 14.8931 4.64367 10.7186 9.47024 12.2851C13.8356 13.7084 17.5489 17.6047 20.0457 21.4848C19.9424 21.5803 20.7217 21.7791 11.5376 18.8053C11.1264 18.6879 10.6961 18.9168 10.5635 19.3233C10.4308 19.7297 10.6434 20.1682 11.0446 20.3161L18.9245 22.8765C17.2508 23.3499 15.6202 23.9643 14.0503 24.7131C11.238 25.2994 8.32502 25.1874 5.56603 24.3871ZM18.1613 38.9623C15.1953 43.0573 9.64515 41.9361 8.38088 41.6181C7.68113 40.5128 4.89812 35.575 7.87198 31.4879C10.5437 27.8143 15.4815 25.4369 19.8867 24.2758C19.9583 24.3871 20.3239 23.8147 14.7103 31.5437C14.5001 31.8983 14.5961 32.3552 14.9315 32.5953C15.2668 32.8354 15.7301 32.7792 15.9984 32.4658L20.8727 25.7549C20.8039 27.4837 20.8811 29.2152 21.1032 30.9312C20.8072 33.8117 19.7958 36.5722 18.1613 38.9623ZM35.925 31.4879C38.8986 35.575 36.1156 40.5128 35.4161 41.6181C34.1516 41.9361 28.6016 43.0573 25.6357 38.9623C22.9242 35.2331 22.2324 29.8658 22.4551 25.3097C22.5902 25.3097 22.1289 24.6972 27.7746 32.4658C27.9219 32.7362 28.2121 32.8972 28.5197 32.879C28.827 32.8608 29.0962 32.6667 29.2108 32.3811C29.3251 32.0953 29.2645 31.7688 29.0547 31.5437L24.2044 24.8325C25.8478 25.442 27.5394 25.9126 29.2614 26.24C31.8766 27.4207 34.1642 29.222 35.925 31.4879ZM24.284 23.1547C24.284 23.0196 23.6873 23.266 32.7444 20.3161C33.1455 20.1682 33.3581 19.7297 33.2253 19.3233C33.0928 18.9168 32.6623 18.6879 32.2514 18.8053L24.3715 21.3338C25.4422 19.9643 26.3994 18.5096 27.2338 16.9845C29.1704 14.8562 31.5969 13.2323 34.3028 12.2533C39.0736 10.663 42.946 14.8613 43.7729 15.8632C43.6934 17.1672 43.0573 22.789 38.2068 24.3556C33.8733 25.8104 28.5778 24.8244 24.284 23.1547Z" fill="#986A3E"/>
</svg>
