<svg width="43" height="36" viewBox="0 0 43 36" fill="none" xmlns="http://www.w3.org/2000/svg">
<path d="M14.505 36C11.6922 36 8.15408 31.7476 6.66528 26.5503L0.42822 3.89813C-0.954698 -1.29938 1.11845 -1.29938 5.11228 3.89813L23.6365 26.5503C28.1334 31.7476 29.5772 36 26.7645 36H14.505Z" fill="#D7CFFF"/>
<path d="M28.124 36C30.9369 36 34.4749 31.7475 35.9638 26.5502L42.2008 3.89812C43.5839 -1.29937 41.5107 -1.29937 37.5168 3.89812L18.9926 26.5502C14.4956 31.7475 13.0518 36 15.8647 36H28.124Z" fill="#D7CFFF"/>
<path d="M14.5347 36C11.7219 36 9.42108 31.7476 9.44551 26.5503L9.85675 3.89813C10.0211 -1.29938 12.4757 -1.29938 15.2641 3.89813L27.1122 26.5503C29.7607 31.7476 29.607 36 26.7941 36H14.5347Z" fill="#9785F4"/>
<path d="M27.5014 36C30.3143 36 32.615 31.7476 32.5907 26.5503L32.1793 3.89813C32.0152 -1.29938 29.5605 -1.29938 26.7721 3.89813L14.9239 26.5503C12.2755 31.7476 12.4293 36 15.2421 36H27.5014Z" fill="#9785F4"/>
<path d="M14.9679 36C12.1551 36 11.0044 31.7476 12.4108 26.5503L18.5405 3.89813C19.947 -1.29938 22.2483 -1.29938 23.6547 3.89813L29.7844 26.5503C31.1908 31.7476 30.0401 36 27.2274 36H14.9679Z" fill="#5235EF"/>
</svg>
