<svg width="20" height="18" viewBox="0 0 20 18" fill="none" xmlns="http://www.w3.org/2000/svg">
<path d="M18.8458 2.27172C18.1297 1.24374 17.1181 0.508586 15.9736 0.184369C14.8291 -0.139849 13.618 -0.0343119 12.535 0.484025C11.5657 0.941075 10.7011 1.71166 10 2.73427C9.29886 1.70916 8.43433 0.938575 7.46499 0.484025C6.38197 -0.0343119 5.17093 -0.139849 4.02641 0.184369C2.88189 0.508586 1.87033 1.24374 1.15423 2.27172C0.399085 3.35284 0 4.70399 0 6.17865C0 8.30089 1.15835 10.6291 3.44256 13.1014C5.30389 15.1151 7.50343 16.7643 8.64851 17.5679C9.05198 17.8501 9.52098 18 10 18C10.479 18 10.948 17.8501 11.3515 17.5679C12.4957 16.7643 14.6961 15.1151 16.5574 13.1014C18.8416 10.6301 20 8.30089 20 6.17865C20 4.70399 19.6009 3.35284 18.8458 2.27172Z" fill="#F9595F"/>
</svg>
