<svg width="21" height="20" viewBox="0 0 21 20" fill="none" xmlns="http://www.w3.org/2000/svg">
<path d="M10.1468 2.15917C10.4907 2.15917 10.7696 1.88028 10.7696 1.53633V0.622837C10.7696 0.278893 10.4907 0 10.1468 0C9.80282 0 9.52393 0.278893 9.52393 0.622837V1.53633C9.52393 1.88028 9.80282 2.15917 10.1468 2.15917Z" fill="white"/>
<path d="M1.53633 9.52344H0.622837C0.278893 9.52344 0 9.80233 0 10.1463C0 10.4902 0.278893 10.7691 0.622837 10.7691H1.53564C1.87958 10.7691 2.15848 10.4902 2.15848 10.1463C2.15848 9.80233 1.88028 9.52344 1.53633 9.52344Z" fill="white"/>
<path d="M19.6706 9.52344H18.7578C18.4139 9.52344 18.135 9.80233 18.135 10.1463C18.135 10.4902 18.4139 10.7691 18.7578 10.7691H19.6706C20.0146 10.7691 20.2935 10.4902 20.2935 10.1463C20.2935 9.80233 20.0146 9.52344 19.6706 9.52344Z" fill="white"/>
<path d="M16.4416 2.97164L15.7945 3.61732C15.5509 3.86092 15.5509 4.25469 15.7945 4.49829C15.9163 4.62009 16.0755 4.68099 16.2353 4.68099C16.3952 4.68099 16.5544 4.62009 16.6755 4.49898L17.3225 3.85331C17.5661 3.60971 17.5661 3.21593 17.3225 2.97234C17.0789 2.72874 16.6831 2.72874 16.4416 2.97164Z" fill="white"/>
<path d="M4.49896 4.49789C4.74256 4.25429 4.74256 3.86052 4.49896 3.61692L3.8519 2.97124C3.60969 2.72834 3.21453 2.72834 2.97162 2.97124C2.72872 3.21415 2.72803 3.60861 2.97162 3.85221L3.61868 4.49789C3.73979 4.61899 3.89896 4.67989 4.05882 4.67989C4.21868 4.67989 4.37716 4.61969 4.49896 4.49789Z" fill="white"/>
<path d="M9.45474 4.54723C6.96339 4.83996 4.90526 6.80259 4.51149 9.28079C4.15509 11.5244 5.10803 13.5714 6.72326 14.7832C7.17516 15.1223 7.45959 15.6323 7.4762 16.1943H12.8167C12.8312 15.6358 13.1115 15.1258 13.5613 14.7901C14.9544 13.7493 15.8568 12.0891 15.8568 10.2164C15.8568 6.83442 12.9177 4.13961 9.45474 4.54723Z" fill="white"/>
<path d="M7.48242 17.2344V17.3354C7.48242 18.0759 7.78 18.7403 8.26443 19.2178C8.74194 19.7022 9.41322 19.9998 10.1468 19.9998C11.6208 19.9998 12.8111 18.8095 12.8111 17.3354V17.2344H7.48242Z" fill="white"/>
</svg>
