<svg width="21" height="20" viewBox="0 0 21 20" fill="none" xmlns="http://www.w3.org/2000/svg">
<path d="M19.9136 0.272956C19.8957 0.192522 19.8332 0.129963 19.7572 0.10762C17.1387 -0.53138 11.0927 1.74757 7.8173 5.02301C7.23192 5.60392 6.70016 6.23398 6.2265 6.90426C5.21661 6.81489 4.20672 6.89085 3.34429 7.26621C0.913412 8.33419 0.207384 11.127 0.00629991 12.3246C-0.0339169 12.557 0.122482 12.7804 0.359314 12.8206C0.399531 12.8251 0.439748 12.8295 0.479965 12.8251L4.38099 12.3961C4.38546 12.691 4.40334 12.9859 4.43462 13.2764C4.45249 13.4775 4.54633 13.6696 4.68932 13.8126L6.19969 15.3185C6.34268 15.4615 6.53483 15.5553 6.73591 15.5732C7.02637 15.6045 7.31682 15.6224 7.61174 15.6268L7.18277 19.5234C7.15595 19.7602 7.33023 19.9747 7.56706 19.9971C7.60728 20.0015 7.64749 20.0015 7.68324 19.9926C8.88081 19.8004 11.6781 19.0944 12.7416 16.6635C13.117 15.8011 13.1929 14.7957 13.108 13.7903C13.7828 13.3166 14.4129 12.7804 14.9938 12.1995C18.2781 8.93298 20.5437 3.0211 19.9136 0.272956ZM14.7435 8.29844C13.9079 9.13406 12.5495 9.13853 11.7139 8.29844C10.8738 7.46283 10.8738 6.10439 11.7139 5.26431C12.5495 4.42422 13.9079 4.42422 14.748 5.26431C15.5836 6.10439 15.5836 7.46283 14.7435 8.29844Z" fill="#EDF1F4"/>
<path d="M6.09694 16.4087C5.85117 16.6545 5.45794 16.7483 4.98428 16.8332C3.92077 17.012 2.98237 16.0959 3.17452 15.0235C3.24602 14.6168 3.46498 14.0449 3.59903 13.9108C3.675 13.8348 3.67947 13.7097 3.6035 13.6338C3.55881 13.5891 3.50072 13.5667 3.43816 13.5757C2.84385 13.6472 2.28975 13.9197 1.86971 14.3398C0.815135 15.3944 0.716827 19.2954 0.716827 19.2954C0.716827 19.2954 4.62233 19.1971 5.67243 18.1425C6.09694 17.718 6.36505 17.1684 6.43655 16.5696C6.45442 16.3864 6.22653 16.2747 6.09694 16.4087Z" fill="#EDF1F4"/>
</svg>
