<svg width="13" height="20" viewBox="0 0 13 20" fill="none" xmlns="http://www.w3.org/2000/svg">
<path fill-rule="evenodd" clip-rule="evenodd" d="M0.133814 19.9437C0.195431 19.9867 0.270487 20.0061 0.345227 19.9983C0.419968 19.9905 0.489388 19.956 0.540765 19.9012L12.3316 7.30617C12.3733 7.2617 12.4011 7.20601 12.4115 7.14597C12.4219 7.08592 12.4145 7.02414 12.3903 6.96823C12.366 6.91232 12.326 6.86471 12.275 6.83128C12.2241 6.79784 12.1645 6.78003 12.1035 6.78004H7.7585L11.34 0.466716C11.3669 0.419165 11.3808 0.365397 11.3805 0.310765C11.3802 0.256133 11.3655 0.202545 11.338 0.155336C11.3105 0.108127 11.2711 0.0689445 11.2238 0.0416909C11.1764 0.0144373 11.1228 6.31814e-05 11.0681 0L6.4021 0C6.34785 9.26612e-06 6.29454 0.0141533 6.24742 0.0410384C6.2003 0.0679234 6.161 0.106622 6.13339 0.15332L0.065221 10.3847C0.0370629 10.4322 0.0219672 10.4862 0.0214687 10.5414C0.0209702 10.5966 0.0350865 10.6509 0.0623826 10.6988C0.0896788 10.7468 0.129182 10.7866 0.176877 10.8144C0.224572 10.8421 0.278759 10.8567 0.333931 10.8567H4.39973L0.033229 19.5471C-0.000490665 19.6143 -0.0088829 19.6913 0.00959047 19.7642C0.0280638 19.837 0.0721655 19.9008 0.133814 19.9437Z" fill="#F44336"/>
</svg>
