<svg width="21" height="20" viewBox="0 0 21 20" fill="none" xmlns="http://www.w3.org/2000/svg">
<path fill-rule="evenodd" clip-rule="evenodd" d="M9.38816 3.72453C8.44443 3.6938 7.5242 3.60434 6.63387 3.45724C6.68723 3.32037 6.74277 3.18651 6.8004 3.0554C7.5007 1.45897 8.43163 0.365138 9.38816 0V3.72453ZM16.1523 9.27591C16.101 7.60901 15.8662 5.99614 15.4712 4.54424C16.3701 4.31897 17.2305 4.03501 18.044 3.69574C19.2824 5.25034 20.0745 7.17557 20.224 9.27591H16.1523ZM15.4712 15.4556C15.8662 14.0033 16.101 12.39 16.1523 10.7241H20.224C20.0745 12.8245 19.2824 14.7497 18.044 16.3043C17.2305 15.9648 16.3701 15.6811 15.4712 15.4556ZM14.7474 17.5324C14.8456 17.3076 14.9395 17.0755 15.0292 16.837C15.706 17.0036 16.3615 17.2058 16.9871 17.4425C16.0178 18.338 14.8755 19.0482 13.6158 19.5134C14.0321 18.9545 14.4143 18.2906 14.7474 17.5324ZM5.19476 16.837C5.29727 17.108 5.404 17.371 5.51716 17.6249C5.8417 18.3453 6.20897 18.9777 6.60823 19.5134C5.3485 19.0477 4.20406 18.338 3.23687 17.4425C3.86247 17.2058 4.5158 17.0036 5.19476 16.837ZM4.06957 10.7242C4.12293 12.3919 4.3578 14.0039 4.7528 15.4556C3.8539 15.6811 2.99343 15.9649 2.17997 16.3043C0.941601 14.7497 0.149468 12.8245 0 10.7242H4.06957ZM4.7528 4.54424C4.3578 5.99658 4.12293 7.61007 4.06957 9.27591H0C0.149468 7.17557 0.941601 5.25034 2.17997 3.69574C2.99347 4.03564 3.85394 4.31897 4.7528 4.54424ZM5.47446 2.47377C5.37627 2.6969 5.28443 2.92687 5.19476 3.163C4.51793 2.99647 3.86243 2.79427 3.23683 2.55747C4.2062 1.66177 5.3485 0.951634 6.61037 0.485969C6.18977 1.0473 5.80757 1.71304 5.47446 2.47377ZM14.7217 2.41231C14.3951 1.67674 14.0235 1.03194 13.6157 0.486403C14.8755 0.952306 16.0177 1.66181 16.9871 2.55751C16.3615 2.79427 15.706 2.99647 15.0292 3.16304C14.9331 2.90507 14.8306 2.6544 14.7217 2.41231ZM10.8358 3.72453V0C11.7817 0.361465 12.7019 1.43203 13.4001 3.00093C13.4663 3.14934 13.5282 3.302 13.5901 3.4572C12.6998 3.60434 11.7774 3.6938 10.8358 3.72453ZM10.8358 9.27591V5.17343C11.9375 5.13994 13.0158 5.03041 14.0535 4.84697C14.4293 6.19487 14.6513 7.7055 14.7047 9.27587L10.8358 9.27591ZM10.8358 14.8266V10.7242H14.7047C14.6513 12.2937 14.4271 13.8047 14.0534 15.1528C13.0158 14.9696 11.9375 14.8601 10.8358 14.8266ZM10.8358 16.2757C11.7774 16.306 12.6998 16.3957 13.5901 16.5428C13.5346 16.6814 13.4791 16.8174 13.4215 16.9506C12.7212 18.5436 11.7924 19.6347 10.8358 20V16.2757ZM9.38816 16.2757V19.9996C8.44874 19.6407 7.53486 18.5842 6.83879 17.032C6.76837 16.8731 6.70003 16.7098 6.63383 16.5428C7.5242 16.3957 8.44447 16.306 9.38816 16.2757ZM9.38816 10.7242V14.8266C8.28643 14.8601 7.2082 14.9696 6.17053 15.1528C5.79473 13.8056 5.5727 12.2954 5.51934 10.7242H9.38816ZM9.38816 5.17343V9.27587H5.51934C5.5727 7.70633 5.79477 6.1951 6.17053 4.84697C7.2082 5.03041 8.28647 5.13994 9.38816 5.17343Z" fill="white"/>
</svg>
