<svg width="24" height="18" viewBox="0 0 24 18" fill="none" xmlns="http://www.w3.org/2000/svg">
<path d="M7.02987 0C4.69766 0 2.80029 2.01173 2.80029 4.48447C2.80029 6.9572 4.69766 8.96894 7.02987 8.96894C9.36207 8.96894 11.2595 6.9572 11.2595 4.48447C11.2595 2.01173 9.36212 0 7.02987 0Z" fill="#1A59AC"/>
<path d="M16.646 0.641602C16.6364 0.641602 16.6267 0.641647 16.6172 0.641692C15.6384 0.649793 14.7242 1.06305 14.043 1.80542C13.3737 2.53467 13.0098 3.49672 13.0181 4.51431C13.0266 5.5319 13.4063 6.4878 14.0875 7.20596C14.7741 7.92969 15.6835 8.32715 16.6514 8.32715C16.6612 8.32715 16.6709 8.3271 16.6807 8.32706C17.6594 8.31895 18.5737 7.90566 19.2549 7.16333C19.9242 6.43408 20.2881 5.47202 20.2797 4.45439C20.2623 2.34562 18.635 0.641602 16.646 0.641602Z" fill="#1A59AC"/>
<path d="M16.8244 9.06152H16.4731C14.8375 9.06152 13.3449 9.68337 12.218 10.7026C12.4999 10.9189 12.7683 11.1547 13.0226 11.4091C13.773 12.1595 14.3623 13.0338 14.7741 14.0078C15.1453 14.8849 15.3571 15.8091 15.4064 16.7609H23.1723V15.409C23.1723 11.9092 20.3246 9.06152 16.8244 9.06152Z" fill="#1A59AC"/>
<path d="M14.046 16.7607C13.9179 14.6974 12.872 12.8826 11.311 11.7194C10.1755 10.8731 8.76705 10.3721 7.2414 10.3721H6.81868C3.05274 10.3721 6.10352e-05 13.4247 6.10352e-05 17.1907V17.9999H14.0596V17.1907C14.0596 17.0463 14.055 16.9028 14.046 16.7607Z" fill="#1A59AC"/>
</svg>
