<svg width="7" height="10" viewBox="0 0 7 10" fill="none" xmlns="http://www.w3.org/2000/svg">
<path d="M0.276682 9.67357C0.185656 9.5783 0.114351 9.46598 0.0668887 9.34312C0.0194288 9.22015 -0.00315522 9.08906 0.000336213 8.95736C0.00382765 8.82566 0.0333257 8.69595 0.0872342 8.57567C0.14114 8.4555 0.218295 8.34712 0.314242 8.25681L3.69374 5.06159L0.488284 1.69181C0.305394 1.49896 0.206591 1.24134 0.213635 0.975649C0.220678 0.709957 0.332992 0.457947 0.525844 0.275047C0.718695 0.0921573 0.976311 -0.00663588 1.242 0.000407818C1.3736 0.00389661 1.50312 0.033259 1.62331 0.0868256C1.74359 0.140395 1.85208 0.217114 1.94261 0.312607L5.82768 4.40929C5.91874 4.50455 5.99004 4.61687 6.03747 4.73973C6.0849 4.8627 6.10752 4.99379 6.10403 5.12549C6.10054 5.25719 6.071 5.3869 6.01712 5.50718C5.96325 5.62736 5.8861 5.73574 5.79012 5.82605L1.69344 9.71113C1.59818 9.80215 1.48586 9.87346 1.363 9.92092C1.24003 9.96838 1.10894 9.99096 0.977239 9.98747C0.84554 9.98398 0.715829 9.95448 0.595551 9.90057C0.475372 9.84667 0.366992 9.76951 0.276682 9.67357Z" fill="url(#paint0_linear_352_95)"/>
<defs>
<linearGradient id="paint0_linear_352_95" x1="6.19342" y1="1.75382" x2="4.63595" y2="10.3697" gradientUnits="userSpaceOnUse">
<stop stop-color="#406AE4"/>
<stop offset="1" stop-color="#3B82F6"/>
</linearGradient>
</defs>
</svg>
