<svg width="280" height="70" viewBox="0 0 280 70" fill="none" xmlns="http://www.w3.org/2000/svg">
<rect width="280" height="69.7507" fill="white"/>
<rect x="9.74585" y="9.33325" width="46.6667" height="46.6667" rx="9.33333" fill="url(#paint0_linear_9739_992)"/>
<path d="M33.0793 44.7999C39.4924 44.7999 44.6912 39.3676 44.6912 32.6665C44.6912 25.9655 39.4924 20.5332 33.0793 20.5332C26.6661 20.5332 21.4673 25.9655 21.4673 32.6665C21.4673 39.3676 26.6661 44.7999 33.0793 44.7999Z" fill="#5C5C5C"/>
<path d="M33.0792 43.5202C39.4269 43.5202 44.5727 38.3744 44.5727 32.0267C44.5727 25.679 39.4269 20.5332 33.0792 20.5332C26.7315 20.5332 21.5857 25.679 21.5857 32.0267C21.5857 38.3744 26.7315 43.5202 33.0792 43.5202Z" fill="#B5B5B5"/>
<path opacity="0.5" d="M37.6671 21.4857L22.5384 36.6098C22.0312 35.4486 21.7137 34.1878 21.6189 32.8655L33.9181 20.5615C35.2405 20.6611 36.5012 20.9786 37.6671 21.4857Z" fill="white"/>
<path opacity="0.5" d="M43.0939 26.3866L27.4391 42.0414C26.4627 41.4916 25.5811 40.8044 24.8086 40.0034L41.0606 23.7561C41.8569 24.5239 42.5441 25.4102 43.0939 26.3866Z" fill="white"/>
<path opacity="0.5" d="M40.5913 23.3248L24.3819 39.5342C24.1307 39.2403 23.889 38.9323 23.6663 38.6147L39.6718 22.6091C39.9894 22.8319 40.2975 23.0736 40.5913 23.3248Z" fill="white"/>
<path opacity="0.5" d="M44.2124 29.1594L30.2116 43.1601C29.7898 43.0511 29.3775 42.9184 28.9746 42.7667L43.819 27.9224C43.9707 28.3252 44.1034 28.7376 44.2124 29.1594Z" fill="white"/>
<path opacity="0.5" d="M44.5727 32.0264C44.5727 32.107 44.5727 32.1829 44.5679 32.2634C44.4447 26.0261 39.3497 21.0069 33.0792 21.0069C26.8087 21.0069 21.7137 26.0261 21.5904 32.2634C21.5904 32.1829 21.5857 32.107 21.5857 32.0264C21.5857 25.6801 26.7329 20.533 33.0792 20.533C39.4255 20.533 44.5727 25.6801 44.5727 32.0264Z" fill="white"/>
<path opacity="0.5" d="M42.4162 32.5242C42.4162 37.496 38.3828 41.5294 33.411 41.5294C30.6194 41.5294 28.1216 40.2545 26.4675 38.2591C28.1122 40.0365 30.463 41.1503 33.0792 41.1503C38.0511 41.1503 42.0845 37.1169 42.0845 32.1451C42.0845 29.9648 41.3119 27.9695 40.0227 26.4102C41.5062 28.0169 42.4162 30.1639 42.4162 32.5242Z" fill="white"/>
<path d="M33.0792 41.1506C38.0526 41.1506 42.0844 37.1188 42.0844 32.1453C42.0844 27.1719 38.0526 23.1401 33.0792 23.1401C28.1057 23.1401 24.074 27.1719 24.074 32.1453C24.074 37.1188 28.1057 41.1506 33.0792 41.1506Z" fill="#777777"/>
<path d="M39.9042 26.2683C38.3259 24.908 36.2737 24.0881 34.0271 24.0881C29.0553 24.0881 25.0219 28.1214 25.0219 33.0933C25.0219 35.3398 25.8418 37.3921 27.2021 38.9703C25.2873 37.3162 24.074 34.8753 24.074 32.1453C24.074 27.1735 28.1074 23.1401 33.0792 23.1401C35.8044 23.1401 38.2501 24.3535 39.9042 26.2683Z" fill="#5C5C5C"/>
<path d="M37.7004 33.7427L37.6198 33.7901C37.4113 32.9939 36.8141 32.5815 35.9894 32.3825C36.6245 32.0602 37.0369 31.5057 37.0132 30.6146V29.9558L36.9184 29.9843C36.6056 28.9036 35.4965 28.515 34.1315 28.3965V26.458H32.9513V28.3444C32.6433 28.3444 32.3257 28.3491 32.0082 28.3586V26.458H30.828V28.3965C30.5721 28.4012 30.3209 28.406 30.0744 28.406V28.4012H28.4487V29.662C28.4487 29.662 29.3208 29.643 29.3066 29.662C29.7853 29.662 29.9417 29.9416 29.9844 30.1786V32.3825C30.0175 32.3825 30.0602 32.3825 30.1076 32.392C30.0697 32.392 30.027 32.392 29.9844 32.392V35.4869C29.9654 35.6386 29.8753 35.8756 29.5388 35.8756C29.5531 35.8898 28.681 35.8756 28.681 35.8756L28.572 36.5344L28.4487 36.5723V37.2832H29.9844C30.2687 37.2832 30.5531 37.288 30.828 37.288V39.2549H32.0082V37.3164C32.3304 37.3211 32.6433 37.3259 32.9513 37.3259V39.2549H34.1315V37.2974C36.1174 37.1837 37.5061 36.6813 37.6767 34.8234C37.6862 34.7191 37.6909 34.6196 37.6957 34.52V33.7427H37.7004ZM32.0461 29.7425C32.7144 29.7425 34.8045 29.5293 34.8045 30.9227C34.8045 32.2545 32.7144 32.0981 32.0461 32.1029V29.7425ZM32.0461 35.8898V33.2925C32.8471 33.2925 35.3543 33.0602 35.3543 34.5911C35.3543 36.0557 32.8423 35.885 32.0461 35.8898Z" fill="#464646"/>
<path d="M37.0035 29.6857C36.8708 28.2875 35.6622 27.8183 34.1408 27.6856V25.7471H32.9606V27.6334C32.6525 27.6334 32.335 27.6382 32.0174 27.6476V25.7471H30.8373V27.6856C30.5813 27.6903 30.3301 27.695 30.0837 27.695V27.6903H28.458V28.951C28.458 28.951 29.3301 28.9321 29.3159 28.951C29.7946 28.951 29.951 29.2307 29.9936 29.4676V31.6715C30.0268 31.6715 30.0695 31.6715 30.1169 31.681C30.0789 31.681 30.0363 31.681 29.9936 31.681V34.776C29.9747 34.9276 29.8846 35.1646 29.5481 35.1646C29.5623 35.1788 28.6902 35.1646 28.6902 35.1646L28.458 36.5723H29.9936C30.278 36.5723 30.5624 36.577 30.8373 36.577V38.5439H32.0174V36.6055C32.3397 36.6102 32.6525 36.6149 32.9606 36.6149V38.5439H34.1408V36.5865C36.1267 36.4727 37.5154 35.9704 37.686 34.1124C37.8234 32.6147 37.1172 31.9417 35.9939 31.6715C36.6764 31.3208 37.103 30.7094 37.0035 29.6857ZM35.3541 33.8755C35.3541 35.34 32.8469 35.1741 32.0459 35.1741V32.5768C32.8421 32.5768 35.3541 32.3493 35.3541 33.8755ZM34.8043 30.2118C34.8043 31.5436 32.7142 31.3872 32.0459 31.3919V29.0363C32.7094 29.0363 34.8043 28.8231 34.8043 30.2118Z" fill="#B5B5B5"/>
<path opacity="0.5" d="M30.8373 25.7471H32.0174V27.131L29.9131 29.2354C29.823 29.0743 29.6429 28.9463 29.3159 28.9463C29.3301 28.9321 28.458 28.9463 28.458 28.9463V27.6903H30.0837V27.695C30.3301 27.695 30.5813 27.6903 30.8373 27.6856V25.7471Z" fill="white"/>
<path opacity="0.5" d="M33.4016 25.7471L32.9561 26.1926V25.7471H33.4016Z" fill="white"/>
<path opacity="0.5" d="M34.5721 34.9088L32.8706 36.6103C32.5909 36.6103 32.3113 36.6056 32.0174 36.6008V37.4634L30.9368 38.5441H30.8373V36.5819C30.5624 36.5819 30.278 36.5771 29.9936 36.5771H28.458L28.5007 36.3164L29.6571 35.16C29.8704 35.1221 29.9557 34.9609 29.9842 34.833L32.0459 32.7712V35.1789C32.553 35.1789 33.7663 35.2453 34.5721 34.9088Z" fill="white"/>
<path opacity="0.5" d="M35.3162 34.1644C35.3399 34.0744 35.3541 33.9796 35.3541 33.8753C35.3541 32.4535 33.1882 32.553 32.2402 32.5719L33.482 31.3302C34.1645 31.2259 34.8043 30.9415 34.8043 30.2069C34.8043 30.1405 34.7996 30.0789 34.7901 30.022L36.3874 28.4248C36.7286 28.7234 36.9514 29.131 37.0035 29.6808C37.103 30.7045 36.6765 31.316 35.9892 31.6667C36.4822 31.7852 36.8945 31.9795 37.1884 32.2876L35.3162 34.1644Z" fill="white"/>
<path opacity="0.5" d="M28.6904 35.1692H28.7473L28.6809 35.2355L28.6904 35.1692Z" fill="white"/>
<path opacity="0.5" d="M32.046 31.3921C32.1645 31.3921 32.3304 31.3968 32.5247 31.3968L29.9985 33.923V32.2878L32.0508 30.2356L32.046 31.3921Z" fill="white"/>
<path opacity="0.5" d="M35.8376 28.0791L34.4679 29.4489C34.1646 29.1882 33.6953 29.0839 33.2356 29.046L34.5485 27.7332C35.0319 27.7995 35.4679 27.9038 35.8376 28.0791Z" fill="white"/>
<path opacity="0.5" d="M33.1929 38.5438L34.136 37.6006V38.5438H33.1929Z" fill="white"/>
<path opacity="0.5" d="M37.6861 34.0508C37.6861 34.0697 37.6814 34.0934 37.6814 34.1124C37.5439 35.5911 36.6387 36.212 35.2737 36.4632L37.6861 34.0508Z" fill="white"/>
<path opacity="0.25" d="M40.5915 27.1734C34.7618 29.2209 30.0791 33.7187 27.7851 39.4299C27.5861 39.283 27.3918 39.1313 27.2022 38.9654C25.8419 37.3872 25.022 35.3349 25.022 33.0931C25.022 28.1213 29.0554 24.0879 34.0272 24.0879C36.2737 24.0879 38.326 24.9078 39.8995 26.2681C40.1507 26.5572 40.3782 26.8605 40.5915 27.1734Z" fill="white"/>
<path d="M67.3618 27.3337V17.5337H68.7016V18.6949H68.8165C68.9015 18.546 69.0185 18.3737 69.1674 18.1781C69.3205 17.9824 69.5332 17.8123 69.8054 17.6677C70.0776 17.5188 70.4328 17.4444 70.8709 17.4444C71.4451 17.4444 71.9555 17.589 72.4021 17.8782C72.853 18.1674 73.2082 18.5864 73.4676 19.1351C73.7271 19.6838 73.8568 20.3452 73.8568 21.1194C73.8568 21.885 73.7292 22.5443 73.474 23.0972C73.2188 23.6459 72.8658 24.0691 72.4149 24.3669C71.9683 24.6604 71.4558 24.8071 70.8773 24.8071C70.4477 24.8071 70.0946 24.7348 69.8182 24.5902C69.5459 24.4413 69.3311 24.269 69.1738 24.0734C69.0206 23.8777 68.9015 23.7055 68.8165 23.5566H68.7399V27.3337H67.3618ZM70.5774 23.6268C70.99 23.6268 71.3345 23.5162 71.611 23.295C71.8875 23.0738 72.0959 22.774 72.2363 22.3954C72.3809 22.0126 72.4532 21.583 72.4532 21.1066C72.4532 20.6345 72.383 20.2112 72.2426 19.8369C72.1023 19.4626 71.8939 19.167 71.6174 18.9501C71.3409 18.7332 70.9942 18.6247 70.5774 18.6247C70.1733 18.6247 69.8331 18.7289 69.5566 18.9373C69.2801 19.1415 69.0696 19.4307 68.9249 19.805C68.7846 20.1751 68.7144 20.6089 68.7144 21.1066C68.7144 21.6042 68.7867 22.0424 68.9313 22.4209C69.0759 22.7995 69.2865 23.0951 69.563 23.3078C69.8437 23.5204 70.1818 23.6268 70.5774 23.6268ZM77.8572 24.8135C77.1894 24.8135 76.6046 24.6604 76.1027 24.3541C75.605 24.0479 75.2179 23.6183 74.9415 23.0653C74.6692 22.5124 74.5331 21.8701 74.5331 21.1385C74.5331 20.3984 74.6692 19.7519 74.9415 19.1989C75.2179 18.6417 75.605 18.21 76.1027 17.9037C76.6046 17.5975 77.1894 17.4444 77.8572 17.4444C78.5293 17.4444 79.1141 17.5975 79.6118 17.9037C80.1094 18.21 80.4965 18.6417 80.773 19.1989C81.0495 19.7519 81.1877 20.3984 81.1877 21.1385C81.1877 21.8701 81.0495 22.5124 80.773 23.0653C80.4965 23.6183 80.1094 24.0479 79.6118 24.3541C79.1141 24.6604 78.5293 24.8135 77.8572 24.8135ZM77.8572 23.6459C78.2953 23.6459 78.6569 23.5311 78.9419 23.3014C79.2268 23.0717 79.4374 22.7676 79.5735 22.389C79.7139 22.0062 79.784 21.5894 79.784 21.1385C79.784 20.6791 79.7139 20.258 79.5735 19.8752C79.4374 19.4924 79.2268 19.1861 78.9419 18.9565C78.6569 18.7268 78.2953 18.6119 77.8572 18.6119C77.4234 18.6119 77.064 18.7268 76.779 18.9565C76.4982 19.1861 76.2877 19.4924 76.1473 19.8752C76.007 20.258 75.9368 20.6791 75.9368 21.1385C75.9368 21.5894 76.007 22.0062 76.1473 22.389C76.2877 22.7676 76.4982 23.0717 76.779 23.3014C77.064 23.5311 77.4234 23.6459 77.8572 23.6459ZM85.5071 17.5337V18.6502H81.6152V17.5337H85.5071ZM82.6551 15.8365H84.0396V22.574C84.0396 22.9016 84.1077 23.1419 84.2438 23.295C84.3799 23.4439 84.599 23.5183 84.901 23.5183C84.9733 23.5183 85.0498 23.5141 85.1307 23.5056C85.2157 23.497 85.3008 23.4843 85.3859 23.4673L85.6475 24.6157C85.5071 24.6625 85.354 24.6986 85.1881 24.7242C85.0222 24.7497 84.8563 24.7625 84.6904 24.7625C84.0737 24.7625 83.5803 24.5902 83.2102 24.2457C82.8402 23.8969 82.6551 23.4332 82.6551 22.8548V15.8365ZM89.4947 24.8135C88.7972 24.8135 88.1932 24.6625 87.6827 24.3605C87.1723 24.0585 86.7789 23.6332 86.5024 23.0845C86.2302 22.5315 86.0941 21.8871 86.0941 21.1513C86.0941 20.4197 86.2281 19.7753 86.496 19.2181C86.7683 18.6608 87.1489 18.227 87.6381 17.9165C88.1315 17.6017 88.71 17.4444 89.3735 17.4444C89.7776 17.4444 90.1689 17.5103 90.5475 17.6421C90.926 17.774 91.2663 17.9824 91.5683 18.2674C91.8703 18.5524 92.1085 18.9224 92.2829 19.3776C92.4615 19.8327 92.5508 20.3814 92.5508 21.0236V21.5213H86.8788V20.4813H91.8363L91.1919 20.8259C91.1919 20.3878 91.1238 20.0007 90.9877 19.6647C90.8516 19.3286 90.6474 19.0671 90.3752 18.8799C90.1072 18.6885 89.7733 18.5928 89.3735 18.5928C88.9737 18.5928 88.6313 18.6885 88.3463 18.8799C88.0656 19.0713 87.8508 19.3244 87.7019 19.6391C87.553 19.9539 87.4786 20.2984 87.4786 20.6727V21.3809C87.4786 21.8701 87.5636 22.2848 87.7338 22.6251C87.9039 22.9654 88.14 23.2248 88.442 23.4035C88.7482 23.5821 89.1034 23.6714 89.5075 23.6714C89.7712 23.6714 90.0094 23.6332 90.2221 23.5566C90.439 23.48 90.6261 23.3652 90.7835 23.2121C90.9409 23.0589 91.06 22.8697 91.1408 22.6442L92.4551 22.8931C92.3488 23.2759 92.1617 23.6119 91.8937 23.9011C91.6257 24.1904 91.2876 24.4158 90.8792 24.5774C90.4752 24.7348 90.0136 24.8135 89.4947 24.8135ZM94.8988 20.4367V24.6667H93.5206V17.5337H94.8605V18.7076H94.9562C95.1178 18.3206 95.3709 18.0143 95.7154 17.7889C96.06 17.5592 96.5023 17.4444 97.0425 17.4444C97.5274 17.4444 97.9506 17.5464 98.3122 17.7506C98.678 17.9505 98.9608 18.2504 99.1607 18.6502C99.3649 19.05 99.467 19.5456 99.467 20.1368V24.6667H98.0889V20.3027C98.0889 19.788 97.9528 19.3839 97.6805 19.0904C97.4083 18.7927 97.0383 18.6438 96.5704 18.6438C96.2514 18.6438 95.9643 18.7161 95.709 18.8608C95.4581 19.0011 95.2603 19.2032 95.1157 19.4669C94.9711 19.7306 94.8988 20.0539 94.8988 20.4367ZM104.112 17.5337V18.6502H100.22V17.5337H104.112ZM101.26 15.8365H102.644V22.574C102.644 22.9016 102.712 23.1419 102.849 23.295C102.985 23.4439 103.204 23.5183 103.506 23.5183C103.578 23.5183 103.655 23.5141 103.735 23.5056C103.82 23.497 103.905 23.4843 103.991 23.4673L104.252 24.6157C104.112 24.6625 103.959 24.6986 103.793 24.7242C103.627 24.7497 103.461 24.7625 103.295 24.7625C102.678 24.7625 102.185 24.5902 101.815 24.2457C101.445 23.8969 101.26 23.4332 101.26 22.8548V15.8365ZM105.107 24.6667V17.5337H106.485V24.6667H105.107ZM105.803 16.4363C105.56 16.4363 105.354 16.3555 105.184 16.1938C105.014 16.0322 104.928 15.8387 104.928 15.6132C104.928 15.3835 105.014 15.1879 105.184 15.0263C105.354 14.8646 105.56 14.7838 105.803 14.7838C106.041 14.7838 106.245 14.8646 106.415 15.0263C106.589 15.1879 106.677 15.3835 106.677 15.6132C106.677 15.8387 106.589 16.0322 106.415 16.1938C106.245 16.3555 106.041 16.4363 105.803 16.4363ZM109.879 24.8199C109.429 24.8199 109.02 24.7369 108.654 24.571C108.289 24.4009 107.999 24.1542 107.787 23.8309C107.574 23.5077 107.468 23.1142 107.468 22.6506C107.468 22.2465 107.544 21.9169 107.697 21.6617C107.855 21.4022 108.065 21.1959 108.329 21.0428C108.593 20.8897 108.886 20.7748 109.21 20.6983C109.533 20.6217 109.865 20.5621 110.205 20.5196C110.634 20.4728 110.981 20.4324 111.245 20.3984C111.509 20.3644 111.7 20.3112 111.819 20.2389C111.942 20.1623 112.004 20.0411 112.004 19.8752V19.8433C112.004 19.4392 111.889 19.1266 111.66 18.9054C111.434 18.6842 111.098 18.5736 110.651 18.5736C110.188 18.5736 109.82 18.6757 109.548 18.8799C109.28 19.0798 109.095 19.3074 108.993 19.5626L107.685 19.2627C107.842 18.8289 108.07 18.4801 108.367 18.2164C108.669 17.9484 109.014 17.7527 109.401 17.6294C109.792 17.506 110.201 17.4444 110.626 17.4444C110.911 17.4444 111.213 17.4784 111.532 17.5464C111.851 17.6102 112.151 17.7315 112.432 17.9101C112.717 18.0845 112.948 18.3355 113.127 18.663C113.306 18.9905 113.395 19.4137 113.395 19.9326V24.6667H112.036V23.6906H111.985C111.9 23.865 111.766 24.0394 111.583 24.2138C111.404 24.3881 111.175 24.5328 110.894 24.6476C110.613 24.7625 110.275 24.8199 109.879 24.8199ZM110.179 23.7097C110.566 23.7097 110.896 23.6353 111.168 23.4864C111.441 23.3333 111.649 23.1334 111.794 22.8867C111.938 22.64 112.01 22.3784 112.01 22.1019V21.1768C111.959 21.2236 111.864 21.2682 111.723 21.3108C111.583 21.3533 111.424 21.3894 111.245 21.4192C111.066 21.449 110.892 21.4766 110.722 21.5022C110.552 21.5234 110.409 21.5404 110.294 21.5532C110.026 21.5915 109.782 21.651 109.56 21.7319C109.339 21.8084 109.161 21.9233 109.025 22.0764C108.893 22.2253 108.827 22.423 108.827 22.6697C108.827 23.0143 108.954 23.2737 109.21 23.4481C109.465 23.6225 109.788 23.7097 110.179 23.7097ZM116.107 15.1602V24.6667H114.728V15.1602H116.107ZM123.859 24.8071C123.429 24.8071 123.076 24.7348 122.799 24.5902C122.527 24.4413 122.312 24.269 122.155 24.0734C122.002 23.8777 121.883 23.7055 121.798 23.5566H121.683V24.6667H120.343V15.1602H121.721V18.6949H121.798C121.883 18.546 122 18.3737 122.149 18.1781C122.302 17.9824 122.514 17.8123 122.787 17.6677C123.059 17.5188 123.414 17.4444 123.852 17.4444C124.426 17.4444 124.937 17.589 125.383 17.8782C125.834 18.1674 126.189 18.5864 126.449 19.1351C126.708 19.6838 126.838 20.3452 126.838 21.1194C126.838 21.885 126.71 22.5443 126.455 23.0972C126.2 23.6459 125.847 24.0691 125.396 24.3669C124.95 24.6604 124.437 24.8071 123.859 24.8071ZM123.559 23.6268C123.971 23.6268 124.316 23.5162 124.592 23.295C124.869 23.0738 125.077 22.774 125.218 22.3954C125.362 22.0126 125.434 21.583 125.434 21.1066C125.434 20.6345 125.364 20.2112 125.224 19.8369C125.084 19.4626 124.875 19.167 124.599 18.9501C124.322 18.7332 123.975 18.6247 123.559 18.6247C123.155 18.6247 122.814 18.7289 122.538 18.9373C122.261 19.1415 122.051 19.4307 121.906 19.805C121.766 20.1751 121.696 20.6089 121.696 21.1066C121.696 21.6042 121.768 22.0424 121.913 22.4209C122.057 22.7995 122.268 23.0951 122.544 23.3078C122.825 23.5204 123.163 23.6268 123.559 23.6268ZM127.846 24.6667V17.5337H129.18V18.6757H129.256C129.388 18.2929 129.618 17.9909 129.945 17.7697C130.277 17.5443 130.651 17.4316 131.068 17.4316C131.153 17.4316 131.253 17.4358 131.368 17.4444C131.487 17.4486 131.583 17.455 131.655 17.4635V18.7906C131.6 18.7736 131.5 18.7565 131.355 18.7395C131.215 18.7225 131.072 18.714 130.928 18.714C130.6 18.714 130.307 18.7842 130.047 18.9246C129.792 19.0607 129.59 19.25 129.441 19.4924C129.297 19.7306 129.224 20.0071 129.224 20.3218V24.6667H127.846ZM135.139 24.8135C134.441 24.8135 133.837 24.6625 133.327 24.3605C132.816 24.0585 132.423 23.6332 132.146 23.0845C131.874 22.5315 131.738 21.8871 131.738 21.1513C131.738 20.4197 131.872 19.7753 132.14 19.2181C132.412 18.6608 132.793 18.227 133.282 17.9165C133.775 17.6017 134.354 17.4444 135.018 17.4444C135.422 17.4444 135.813 17.5103 136.191 17.6421C136.57 17.774 136.91 17.9824 137.212 18.2674C137.514 18.5524 137.752 18.9224 137.927 19.3776C138.106 19.8327 138.195 20.3814 138.195 21.0236V21.5213H132.523V20.4813H137.48L136.836 20.8259C136.836 20.3878 136.768 20.0007 136.632 19.6647C136.496 19.3286 136.291 19.0671 136.019 18.8799C135.751 18.6885 135.417 18.5928 135.018 18.5928C134.618 18.5928 134.275 18.6885 133.99 18.8799C133.71 19.0713 133.495 19.3244 133.346 19.6391C133.197 19.9539 133.123 20.2984 133.123 20.6727V21.3809C133.123 21.8701 133.208 22.2848 133.378 22.6251C133.548 22.9654 133.784 23.2248 134.086 23.4035C134.392 23.5821 134.747 23.6714 135.151 23.6714C135.415 23.6714 135.653 23.6332 135.866 23.5566C136.083 23.48 136.27 23.3652 136.428 23.2121C136.585 23.0589 136.704 22.8697 136.785 22.6442L138.099 22.8931C137.993 23.2759 137.806 23.6119 137.538 23.9011C137.27 24.1904 136.932 24.4158 136.523 24.5774C136.119 24.7348 135.658 24.8135 135.139 24.8135ZM141.232 24.8199C140.781 24.8199 140.373 24.7369 140.007 24.571C139.641 24.4009 139.352 24.1542 139.139 23.8309C138.926 23.5077 138.82 23.1142 138.82 22.6506C138.82 22.2465 138.897 21.9169 139.05 21.6617C139.207 21.4022 139.418 21.1959 139.681 21.0428C139.945 20.8897 140.239 20.7748 140.562 20.6983C140.885 20.6217 141.217 20.5621 141.557 20.5196C141.987 20.4728 142.333 20.4324 142.597 20.3984C142.861 20.3644 143.052 20.3112 143.171 20.2389C143.295 20.1623 143.356 20.0411 143.356 19.8752V19.8433C143.356 19.4392 143.242 19.1266 143.012 18.9054C142.786 18.6842 142.45 18.5736 142.004 18.5736C141.54 18.5736 141.172 18.6757 140.9 18.8799C140.632 19.0798 140.447 19.3074 140.345 19.5626L139.037 19.2627C139.194 18.8289 139.422 18.4801 139.72 18.2164C140.022 17.9484 140.366 17.7527 140.753 17.6294C141.145 17.506 141.553 17.4444 141.978 17.4444C142.263 17.4444 142.565 17.4784 142.884 17.5464C143.203 17.6102 143.503 17.7315 143.784 17.9101C144.069 18.0845 144.301 18.3355 144.479 18.663C144.658 18.9905 144.747 19.4137 144.747 19.9326V24.6667H143.388V23.6906H143.337C143.252 23.865 143.118 24.0394 142.935 24.2138C142.757 24.3881 142.527 24.5328 142.246 24.6476C141.966 24.7625 141.627 24.8199 141.232 24.8199ZM141.532 23.7097C141.919 23.7097 142.248 23.6353 142.521 23.4864C142.793 23.3333 143.001 23.1334 143.146 22.8867C143.291 22.64 143.363 22.3784 143.363 22.1019V21.1768C143.312 21.2236 143.216 21.2682 143.076 21.3108C142.935 21.3533 142.776 21.3894 142.597 21.4192C142.419 21.449 142.244 21.4766 142.074 21.5022C141.904 21.5234 141.761 21.5404 141.647 21.5532C141.379 21.5915 141.134 21.651 140.913 21.7319C140.692 21.8084 140.513 21.9233 140.377 22.0764C140.245 22.2253 140.179 22.423 140.179 22.6697C140.179 23.0143 140.307 23.2737 140.562 23.4481C140.817 23.6225 141.14 23.7097 141.532 23.7097ZM147.357 22.2486L147.338 20.5579H147.587L150.426 17.5337H152.085L148.85 20.979H148.62L147.357 22.2486ZM146.081 24.6667V15.1602H147.459V24.6667H146.081ZM150.572 24.6667L148.02 21.2852L148.977 20.3091L152.282 24.6667H150.572ZM155.504 24.8135C154.837 24.8135 154.252 24.6604 153.75 24.3541C153.252 24.0479 152.865 23.6183 152.589 23.0653C152.316 22.5124 152.18 21.8701 152.18 21.1385C152.18 20.3984 152.316 19.7519 152.589 19.1989C152.865 18.6417 153.252 18.21 153.75 17.9037C154.252 17.5975 154.837 17.4444 155.504 17.4444C156.176 17.4444 156.761 17.5975 157.259 17.9037C157.757 18.21 158.144 18.6417 158.42 19.1989C158.697 19.7519 158.835 20.3984 158.835 21.1385C158.835 21.8701 158.697 22.5124 158.42 23.0653C158.144 23.6183 157.757 24.0479 157.259 24.3541C156.761 24.6604 156.176 24.8135 155.504 24.8135ZM155.504 23.6459C155.942 23.6459 156.304 23.5311 156.589 23.3014C156.874 23.0717 157.085 22.7676 157.221 22.389C157.361 22.0062 157.431 21.5894 157.431 21.1385C157.431 20.6791 157.361 20.258 157.221 19.8752C157.085 19.4924 156.874 19.1861 156.589 18.9565C156.304 18.7268 155.942 18.6119 155.504 18.6119C155.071 18.6119 154.711 18.7268 154.426 18.9565C154.145 19.1861 153.935 19.4924 153.794 19.8752C153.654 20.258 153.584 20.6791 153.584 21.1385C153.584 21.5894 153.654 22.0062 153.794 22.389C153.935 22.7676 154.145 23.0717 154.426 23.3014C154.711 23.5311 155.071 23.6459 155.504 23.6459ZM164.354 21.7191V17.5337H165.732V24.6667H164.379V23.429H164.303C164.133 23.8075 163.869 24.1244 163.512 24.3796C163.154 24.6348 162.708 24.7603 162.172 24.7561C161.712 24.7561 161.306 24.6561 160.953 24.4562C160.604 24.2563 160.33 23.9564 160.13 23.5566C159.934 23.1568 159.837 22.6612 159.837 22.07V17.5337H161.215V21.9105C161.215 22.3911 161.351 22.7761 161.623 23.0653C161.895 23.3546 162.246 23.497 162.676 23.4928C162.935 23.4928 163.193 23.429 163.448 23.3014C163.707 23.1738 163.922 22.9781 164.092 22.7144C164.267 22.4507 164.354 22.1189 164.354 21.7191ZM170.377 17.5337V18.6502H166.485V17.5337H170.377ZM167.525 15.8365H168.909V22.574C168.909 22.9016 168.977 23.1419 169.113 23.295C169.249 23.4439 169.469 23.5183 169.771 23.5183C169.843 23.5183 169.919 23.5141 170 23.5056C170.085 23.497 170.17 23.4843 170.255 23.4673L170.517 24.6157C170.377 24.6625 170.224 24.6986 170.058 24.7242C169.892 24.7497 169.726 24.7625 169.56 24.7625C168.943 24.7625 168.45 24.5902 168.08 24.2457C167.71 23.8969 167.525 23.4332 167.525 22.8548V15.8365ZM179.615 19.2819L178.358 19.4988C178.277 19.2606 178.126 19.0415 177.905 18.8416C177.688 18.6417 177.363 18.5417 176.929 18.5417C176.538 18.5417 176.21 18.6311 175.947 18.8097C175.687 18.9841 175.557 19.2074 175.557 19.4796C175.557 19.7178 175.645 19.9114 175.819 20.0602C175.998 20.2091 176.28 20.3282 176.668 20.4175L177.81 20.6727C178.46 20.8216 178.947 21.0556 179.271 21.3746C179.594 21.6936 179.756 22.1019 179.756 22.5996C179.756 23.0292 179.632 23.412 179.385 23.748C179.139 24.0798 178.796 24.3414 178.358 24.5328C177.92 24.7199 177.414 24.8135 176.84 24.8135C176.04 24.8135 175.389 24.6412 174.887 24.2967C174.386 23.9522 174.077 23.4673 173.962 22.842L175.296 22.6378C175.381 22.9866 175.553 23.2503 175.813 23.429C176.076 23.6076 176.417 23.697 176.833 23.697C177.284 23.697 177.646 23.6013 177.918 23.4098C178.195 23.2184 178.333 22.9866 178.333 22.7144C178.333 22.2635 177.997 21.9594 177.325 21.802L176.119 21.5341C175.451 21.3809 174.958 21.1406 174.639 20.8131C174.324 20.4813 174.166 20.0645 174.166 19.5626C174.166 19.1415 174.283 18.7714 174.517 18.4524C174.756 18.1334 175.081 17.8867 175.494 17.7123C175.91 17.5337 176.385 17.4444 176.916 17.4444C177.69 17.4444 178.297 17.6124 178.735 17.9484C179.177 18.2844 179.471 18.7289 179.615 19.2819ZM180.725 24.6667V17.5337H182.103V24.6667H180.725ZM181.421 16.4363C181.178 16.4363 180.972 16.3555 180.802 16.1938C180.632 16.0322 180.547 15.8387 180.547 15.6132C180.547 15.3835 180.632 15.1879 180.802 15.0263C180.972 14.8646 181.178 14.7838 181.421 14.7838C181.659 14.7838 181.863 14.8646 182.033 15.0263C182.208 15.1879 182.295 15.3835 182.295 15.6132C182.295 15.8387 182.208 16.0322 182.033 16.1938C181.863 16.3555 181.659 16.4363 181.421 16.4363ZM186.404 27.4868C185.553 27.4868 184.883 27.3273 184.394 27.0083C183.905 26.6893 183.567 26.3107 183.379 25.8726L184.566 25.3813C184.651 25.5174 184.764 25.6621 184.904 25.8152C185.049 25.9683 185.243 26.098 185.485 26.2044C185.727 26.3107 186.04 26.3639 186.423 26.3639C186.946 26.3639 187.38 26.2363 187.724 25.9811C188.069 25.7301 188.241 25.326 188.241 24.7688V23.3716H188.146C188.069 23.5204 187.952 23.6884 187.795 23.8756C187.637 24.0585 187.422 24.218 187.15 24.3541C186.878 24.4902 186.523 24.5583 186.085 24.5583C185.523 24.5583 185.017 24.4264 184.566 24.1627C184.12 23.8947 183.762 23.5034 183.494 22.9888C183.231 22.4698 183.099 21.8318 183.099 21.0747C183.099 20.3176 183.228 19.6689 183.488 19.1287C183.752 18.5843 184.109 18.1674 184.56 17.8782C185.011 17.589 185.523 17.4444 186.097 17.4444C186.54 17.4444 186.897 17.5188 187.169 17.6677C187.446 17.8123 187.661 17.9824 187.814 18.1781C187.967 18.3737 188.086 18.546 188.171 18.6949H188.273V17.5337H189.619V24.8263C189.619 25.4388 189.477 25.9407 189.192 26.332C188.911 26.7233 188.528 27.0125 188.043 27.1997C187.559 27.3911 187.012 27.4868 186.404 27.4868ZM186.391 23.4035C186.991 23.4035 187.45 23.1972 187.769 22.7846C188.092 22.3677 188.254 21.7914 188.254 21.0556C188.254 20.5749 188.184 20.1538 188.043 19.7923C187.903 19.4265 187.695 19.1415 187.418 18.9373C187.142 18.7289 186.799 18.6247 186.391 18.6247C185.974 18.6247 185.625 18.7332 185.345 18.9501C185.068 19.1628 184.86 19.4541 184.719 19.8242C184.579 20.19 184.509 20.6004 184.509 21.0556C184.509 21.5192 184.579 21.9296 184.719 22.2869C184.86 22.64 185.07 22.9143 185.351 23.11C185.636 23.3056 185.983 23.4035 186.391 23.4035ZM192.325 20.4367V24.6667H190.946V17.5337H192.286V18.7076H192.382C192.544 18.3206 192.797 18.0143 193.141 17.7889C193.486 17.5592 193.928 17.4444 194.468 17.4444C194.953 17.4444 195.376 17.5464 195.738 17.7506C196.104 17.9505 196.387 18.2504 196.587 18.6502C196.791 19.05 196.893 19.5456 196.893 20.1368V24.6667H195.515V20.3027C195.515 19.788 195.379 19.3839 195.106 19.0904C194.834 18.7927 194.464 18.6438 193.996 18.6438C193.677 18.6438 193.39 18.7161 193.135 18.8608C192.884 19.0011 192.686 19.2032 192.541 19.4669C192.397 19.7306 192.325 20.0539 192.325 20.4367ZM200.287 24.8199C199.836 24.8199 199.428 24.7369 199.062 24.571C198.696 24.4009 198.407 24.1542 198.194 23.8309C197.982 23.5077 197.875 23.1142 197.875 22.6506C197.875 22.2465 197.952 21.9169 198.105 21.6617C198.262 21.4022 198.473 21.1959 198.737 21.0428C199 20.8897 199.294 20.7748 199.617 20.6983C199.94 20.6217 200.272 20.5621 200.612 20.5196C201.042 20.4728 201.389 20.4324 201.652 20.3984C201.916 20.3644 202.108 20.3112 202.227 20.2389C202.35 20.1623 202.412 20.0411 202.412 19.8752V19.8433C202.412 19.4392 202.297 19.1266 202.067 18.9054C201.842 18.6842 201.506 18.5736 201.059 18.5736C200.595 18.5736 200.228 18.6757 199.955 18.8799C199.687 19.0798 199.502 19.3074 199.4 19.5626L198.092 19.2627C198.25 18.8289 198.477 18.4801 198.775 18.2164C199.077 17.9484 199.421 17.7527 199.809 17.6294C200.2 17.506 200.608 17.4444 201.034 17.4444C201.319 17.4444 201.621 17.4784 201.94 17.5464C202.259 17.6102 202.558 17.7315 202.839 17.9101C203.124 18.0845 203.356 18.3355 203.535 18.663C203.713 18.9905 203.803 19.4137 203.803 19.9326V24.6667H202.444V23.6906H202.393C202.307 23.865 202.173 24.0394 201.991 24.2138C201.812 24.3881 201.582 24.5328 201.302 24.6476C201.021 24.7625 200.683 24.8199 200.287 24.8199ZM200.587 23.7097C200.974 23.7097 201.304 23.6353 201.576 23.4864C201.848 23.3333 202.056 23.1334 202.201 22.8867C202.346 22.64 202.418 22.3784 202.418 22.1019V21.1768C202.367 21.2236 202.271 21.2682 202.131 21.3108C201.991 21.3533 201.831 21.3894 201.652 21.4192C201.474 21.449 201.299 21.4766 201.129 21.5022C200.959 21.5234 200.817 21.5404 200.702 21.5532C200.434 21.5915 200.189 21.651 199.968 21.7319C199.747 21.8084 199.568 21.9233 199.432 22.0764C199.3 22.2253 199.234 22.423 199.234 22.6697C199.234 23.0143 199.362 23.2737 199.617 23.4481C199.872 23.6225 200.196 23.7097 200.587 23.7097ZM206.514 15.1602V24.6667H205.136V15.1602H206.514Z" fill="#4D585F"/>
<path d="M67.6826 49.2668V37.0442H72.1697C73.0338 37.0442 73.7502 37.1864 74.3189 37.4708C74.8877 37.7551 75.3115 38.1407 75.5904 38.6274C75.8748 39.1086 76.017 39.65 76.017 40.2516C76.017 40.7602 75.9213 41.1895 75.7299 41.5395C75.5439 41.8895 75.2951 42.1684 74.9834 42.3762C74.6717 42.584 74.3271 42.7372 73.9498 42.8356V42.9504C74.36 42.9723 74.7592 43.1036 75.1475 43.3442C75.5357 43.5848 75.8557 43.9266 76.1072 44.3696C76.3643 44.8071 76.4928 45.343 76.4928 45.9774C76.4928 46.6008 76.3451 47.1614 76.0498 47.659C75.76 48.1512 75.3115 48.5422 74.7045 48.8321C74.0975 49.1219 73.3182 49.2668 72.3666 49.2668H67.6826ZM69.5283 47.6918H72.1861C73.0721 47.6918 73.7064 47.5196 74.0893 47.175C74.4721 46.8305 74.6635 46.4012 74.6635 45.8872C74.6635 45.4989 74.565 45.1461 74.3682 44.829C74.1768 44.5063 73.9006 44.2493 73.5396 44.0579C73.1787 43.8665 72.7521 43.7708 72.26 43.7708H69.5283V47.6918ZM69.5283 42.3352H72.0057C72.4158 42.3352 72.7877 42.2559 73.1213 42.0973C73.4549 41.9387 73.7174 41.7145 73.9088 41.4247C74.1057 41.1293 74.2041 40.7875 74.2041 40.3993C74.2041 39.8961 74.0264 39.475 73.6709 39.136C73.3209 38.7915 72.7822 38.6192 72.0549 38.6192H69.5283V42.3352ZM77.8381 49.2668V40.0958H79.61V49.2668H77.8381ZM78.7322 38.6848C78.4205 38.6848 78.1553 38.5809 77.9365 38.3731C77.7178 38.1653 77.6084 37.9165 77.6084 37.6266C77.6084 37.3313 77.7178 37.0797 77.9365 36.8719C78.1553 36.6641 78.4205 36.5602 78.7322 36.5602C79.0385 36.5602 79.301 36.6641 79.5197 36.8719C79.7439 37.0797 79.8561 37.3313 79.8561 37.6266C79.8561 37.9165 79.7439 38.1653 79.5197 38.3731C79.301 38.5809 79.0385 38.6848 78.7322 38.6848ZM85.5818 40.0958V41.5313H80.5779V40.0958H85.5818ZM81.915 37.9137H83.6951V46.5762C83.6951 46.9973 83.7826 47.3063 83.9576 47.5032C84.1326 47.6946 84.4143 47.7903 84.8025 47.7903C84.8955 47.7903 84.9939 47.7848 85.0979 47.7739C85.2072 47.7629 85.3166 47.7465 85.426 47.7247L85.7623 49.2012C85.5818 49.2614 85.385 49.3079 85.1717 49.3407C84.9584 49.3735 84.7451 49.3899 84.5318 49.3899C83.7389 49.3899 83.1045 49.1684 82.6287 48.7254C82.1529 48.277 81.915 47.6809 81.915 46.9372V37.9137ZM90.6104 49.4555C89.7299 49.4555 88.9697 49.2532 88.3299 48.8485C87.69 48.4438 87.1979 47.886 86.8533 47.175C86.5088 46.4641 86.3365 45.6493 86.3365 44.7305C86.3365 43.7954 86.5115 42.9723 86.8615 42.2614C87.217 41.545 87.7119 40.9872 88.3463 40.5879C88.9861 40.1833 89.7354 39.9809 90.5939 39.9809C91.2939 39.9809 91.9146 40.1094 92.4561 40.3665C93.0029 40.618 93.4432 40.9762 93.7768 41.4411C94.1158 41.9059 94.3154 42.4473 94.3756 43.0653H92.6365C92.5764 42.7754 92.4588 42.5102 92.2838 42.2696C92.1143 42.029 91.89 41.8375 91.6111 41.6954C91.3322 41.5532 91.0014 41.4821 90.6186 41.4821C90.1209 41.4821 89.6861 41.6133 89.3143 41.8758C88.9479 42.1329 88.6607 42.502 88.4529 42.9833C88.2451 43.4645 88.1412 44.0333 88.1412 44.6895C88.1412 45.3512 88.2424 45.9282 88.4447 46.4204C88.6471 46.9125 88.9342 47.2926 89.3061 47.5606C89.6834 47.8231 90.1209 47.9543 90.6186 47.9543C91.1326 47.9543 91.5701 47.8122 91.9311 47.5278C92.2975 47.2434 92.5326 46.8551 92.6365 46.3629H94.3756C94.3154 46.959 94.124 47.4895 93.8014 47.9543C93.4787 48.4192 93.0467 48.7856 92.5053 49.0536C91.9639 49.3215 91.3322 49.4555 90.6104 49.4555ZM99.4861 49.4555C98.6275 49.4555 97.8756 49.2586 97.2303 48.8649C96.5904 48.4711 96.0928 47.9188 95.7373 47.2079C95.3873 46.4969 95.2123 45.6711 95.2123 44.7305C95.2123 43.779 95.3873 42.9477 95.7373 42.2368C96.0928 41.5204 96.5904 40.9653 97.2303 40.5715C97.8756 40.1778 98.6275 39.9809 99.4861 39.9809C100.35 39.9809 101.102 40.1778 101.742 40.5715C102.382 40.9653 102.879 41.5204 103.235 42.2368C103.59 42.9477 103.768 43.779 103.768 44.7305C103.768 45.6711 103.59 46.4969 103.235 47.2079C102.879 47.9188 102.382 48.4711 101.742 48.8649C101.102 49.2586 100.35 49.4555 99.4861 49.4555ZM99.4861 47.9543C100.049 47.9543 100.514 47.8067 100.881 47.5114C101.247 47.2161 101.518 46.825 101.693 46.3383C101.873 45.8461 101.963 45.3102 101.963 44.7305C101.963 44.1399 101.873 43.5985 101.693 43.1063C101.518 42.6141 101.247 42.2204 100.881 41.925C100.514 41.6297 100.049 41.4821 99.4861 41.4821C98.9283 41.4821 98.4662 41.6297 98.0998 41.925C97.7389 42.2204 97.4682 42.6141 97.2877 43.1063C97.1072 43.5985 97.017 44.1399 97.017 44.7305C97.017 45.3102 97.1072 45.8461 97.2877 46.3383C97.4682 46.825 97.7389 47.2161 98.0998 47.5114C98.4662 47.8067 98.9283 47.9543 99.4861 47.9543ZM105.056 49.2668V40.0958H106.828V49.2668H105.056ZM105.95 38.6848C105.638 38.6848 105.373 38.5809 105.154 38.3731C104.936 38.1653 104.826 37.9165 104.826 37.6266C104.826 37.3313 104.936 37.0797 105.154 36.8719C105.373 36.6641 105.638 36.5602 105.95 36.5602C106.256 36.5602 106.519 36.6641 106.738 36.8719C106.962 37.0797 107.074 37.3313 107.074 37.6266C107.074 37.9165 106.962 38.1653 106.738 38.3731C106.519 38.5809 106.256 38.6848 105.95 38.6848ZM110.306 43.8282V49.2668H108.534V40.0958H110.257V41.6051H110.38C110.588 41.1075 110.913 40.7137 111.356 40.4239C111.799 40.1286 112.368 39.9809 113.062 39.9809C113.686 39.9809 114.23 40.1122 114.695 40.3747C115.165 40.6317 115.529 41.0172 115.786 41.5313C116.048 42.0454 116.179 42.6825 116.179 43.4426V49.2668H114.408V43.6559C114.408 42.9942 114.233 42.4747 113.883 42.0973C113.533 41.7145 113.057 41.5231 112.455 41.5231C112.045 41.5231 111.676 41.6161 111.348 41.802C111.025 41.9825 110.771 42.2422 110.585 42.5813C110.399 42.9204 110.306 43.336 110.306 43.8282ZM125.474 49.4555C124.593 49.4555 123.833 49.2532 123.193 48.8485C122.553 48.4438 122.061 47.886 121.717 47.175C121.372 46.4641 121.2 45.6493 121.2 44.7305C121.2 43.7954 121.375 42.9723 121.725 42.2614C122.08 41.545 122.575 40.9872 123.21 40.5879C123.849 40.1833 124.599 39.9809 125.457 39.9809C126.157 39.9809 126.778 40.1094 127.319 40.3665C127.866 40.618 128.306 40.9762 128.64 41.4411C128.979 41.9059 129.179 42.4473 129.239 43.0653H127.5C127.44 42.7754 127.322 42.5102 127.147 42.2696C126.978 42.029 126.753 41.8375 126.474 41.6954C126.196 41.5532 125.865 41.4821 125.482 41.4821C124.984 41.4821 124.549 41.6133 124.178 41.8758C123.811 42.1329 123.524 42.502 123.316 42.9833C123.108 43.4645 123.004 44.0333 123.004 44.6895C123.004 45.3512 123.106 45.9282 123.308 46.4204C123.51 46.9125 123.797 47.2926 124.169 47.5606C124.547 47.8231 124.984 47.9543 125.482 47.9543C125.996 47.9543 126.433 47.8122 126.794 47.5278C127.161 47.2434 127.396 46.8551 127.5 46.3629H129.239C129.179 46.959 128.987 47.4895 128.665 47.9543C128.342 48.4192 127.91 48.7856 127.369 49.0536C126.827 49.3215 126.196 49.4555 125.474 49.4555ZM130.502 49.2668V40.0958H132.217V41.5641H132.315C132.485 41.0719 132.78 40.6836 133.201 40.3993C133.628 40.1094 134.109 39.9645 134.645 39.9645C134.754 39.9645 134.883 39.97 135.03 39.9809C135.183 39.9864 135.306 39.9946 135.399 40.0055V41.7118C135.328 41.6899 135.2 41.668 135.014 41.6461C134.833 41.6243 134.65 41.6133 134.464 41.6133C134.043 41.6133 133.666 41.7036 133.332 41.884C133.004 42.059 132.744 42.3024 132.553 42.6141C132.367 42.9204 132.274 43.2758 132.274 43.6805V49.2668H130.502ZM139.78 49.4555C138.921 49.4555 138.169 49.2586 137.524 48.8649C136.884 48.4711 136.387 47.9188 136.031 47.2079C135.681 46.4969 135.506 45.6711 135.506 44.7305C135.506 43.779 135.681 42.9477 136.031 42.2368C136.387 41.5204 136.884 40.9653 137.524 40.5715C138.169 40.1778 138.921 39.9809 139.78 39.9809C140.644 39.9809 141.396 40.1778 142.036 40.5715C142.676 40.9653 143.173 41.5204 143.529 42.2368C143.884 42.9477 144.062 43.779 144.062 44.7305C144.062 45.6711 143.884 46.4969 143.529 47.2079C143.173 47.9188 142.676 48.4711 142.036 48.8649C141.396 49.2586 140.644 49.4555 139.78 49.4555ZM139.78 47.9543C140.343 47.9543 140.808 47.8067 141.174 47.5114C141.541 47.2161 141.812 46.825 141.987 46.3383C142.167 45.8461 142.257 45.3102 142.257 44.7305C142.257 44.1399 142.167 43.5985 141.987 43.1063C141.812 42.6141 141.541 42.2204 141.174 41.925C140.808 41.6297 140.343 41.4821 139.78 41.4821C139.222 41.4821 138.76 41.6297 138.394 41.925C138.033 42.2204 137.762 42.6141 137.581 43.1063C137.401 43.5985 137.311 44.1399 137.311 44.7305C137.311 45.3102 137.401 45.8461 137.581 46.3383C137.762 46.825 138.033 47.2161 138.394 47.5114C138.76 47.8067 139.222 47.9543 139.78 47.9543ZM152.208 42.3434L150.592 42.6223C150.488 42.3161 150.294 42.0344 150.009 41.7774C149.73 41.5204 149.312 41.3918 148.754 41.3918C148.251 41.3918 147.83 41.5067 147.491 41.7364C147.157 41.9606 146.99 42.2477 146.99 42.5977C146.99 42.904 147.103 43.1528 147.327 43.3442C147.556 43.5356 147.92 43.6887 148.418 43.8036L149.886 44.1317C150.723 44.3231 151.349 44.6239 151.765 45.034C152.18 45.4442 152.388 45.9692 152.388 46.609C152.388 47.1614 152.229 47.6536 151.912 48.0856C151.595 48.5122 151.155 48.8485 150.592 49.0946C150.028 49.3352 149.378 49.4555 148.639 49.4555C147.611 49.4555 146.774 49.234 146.129 48.7911C145.484 48.3481 145.087 47.7247 144.94 46.9208L146.654 46.6583C146.763 47.1067 146.985 47.4458 147.319 47.6754C147.658 47.9051 148.095 48.02 148.631 48.02C149.211 48.02 149.676 47.8969 150.026 47.6508C150.381 47.4047 150.559 47.1067 150.559 46.7567C150.559 46.177 150.127 45.786 149.263 45.5836L147.712 45.2391C146.854 45.0422 146.219 44.7333 145.809 44.3122C145.404 43.8856 145.202 43.3497 145.202 42.7043C145.202 42.1629 145.353 41.6872 145.653 41.277C145.96 40.8668 146.378 40.5497 146.908 40.3254C147.444 40.0958 148.054 39.9809 148.738 39.9809C149.733 39.9809 150.512 40.1969 151.076 40.629C151.644 41.061 152.022 41.6325 152.208 42.3434ZM160.493 42.3434L158.877 42.6223C158.773 42.3161 158.579 42.0344 158.294 41.7774C158.015 41.5204 157.597 41.3918 157.039 41.3918C156.536 41.3918 156.115 41.5067 155.776 41.7364C155.442 41.9606 155.276 42.2477 155.276 42.5977C155.276 42.904 155.388 43.1528 155.612 43.3442C155.842 43.5356 156.205 43.6887 156.703 43.8036L158.171 44.1317C159.008 44.3231 159.634 44.6239 160.05 45.034C160.465 45.4442 160.673 45.9692 160.673 46.609C160.673 47.1614 160.515 47.6536 160.197 48.0856C159.88 48.5122 159.44 48.8485 158.877 49.0946C158.313 49.3352 157.663 49.4555 156.924 49.4555C155.896 49.4555 155.06 49.234 154.414 48.7911C153.769 48.3481 153.372 47.7247 153.225 46.9208L154.939 46.6583C155.049 47.1067 155.27 47.4458 155.604 47.6754C155.943 47.9051 156.38 48.02 156.916 48.02C157.496 48.02 157.961 47.8969 158.311 47.6508C158.666 47.4047 158.844 47.1067 158.844 46.7567C158.844 46.177 158.412 45.786 157.548 45.5836L155.997 45.2391C155.139 45.0422 154.504 44.7333 154.094 44.3122C153.69 43.8856 153.487 43.3497 153.487 42.7043C153.487 42.1629 153.638 41.6872 153.938 41.277C154.245 40.8668 154.663 40.5497 155.194 40.3254C155.729 40.0958 156.339 39.9809 157.023 39.9809C158.018 39.9809 158.797 40.1969 159.361 40.629C159.929 41.061 160.307 41.6325 160.493 42.3434ZM165.866 49.4555C164.969 49.4555 164.192 49.2614 163.536 48.8731C162.88 48.4848 162.374 47.9379 162.019 47.2325C161.669 46.5215 161.494 45.693 161.494 44.7469C161.494 43.8063 161.666 42.9778 162.01 42.2614C162.36 41.545 162.85 40.9872 163.479 40.5879C164.113 40.1833 164.857 39.9809 165.71 39.9809C166.229 39.9809 166.733 40.0657 167.219 40.2352C167.706 40.4047 168.144 40.6727 168.532 41.0391C168.92 41.4055 169.226 41.8813 169.451 42.4665C169.68 43.0516 169.795 43.7571 169.795 44.5829V45.2227H162.503V43.8856H168.876L168.048 44.3286C168.048 43.7653 167.96 43.2676 167.785 42.8356C167.61 42.4036 167.348 42.0672 166.998 41.8266C166.653 41.5805 166.224 41.4575 165.71 41.4575C165.196 41.4575 164.756 41.5805 164.389 41.8266C164.028 42.0727 163.752 42.3981 163.561 42.8028C163.369 43.2075 163.274 43.6504 163.274 44.1317V45.0422C163.274 45.6711 163.383 46.2043 163.602 46.6418C163.821 47.0793 164.124 47.4129 164.512 47.6426C164.906 47.8723 165.363 47.9872 165.882 47.9872C166.221 47.9872 166.528 47.9379 166.801 47.8395C167.08 47.7411 167.321 47.5934 167.523 47.3965C167.725 47.1997 167.878 46.9563 167.982 46.6665L169.672 46.9864C169.535 47.4786 169.295 47.9106 168.95 48.2825C168.606 48.6543 168.171 48.9442 167.646 49.152C167.126 49.3543 166.533 49.4555 165.866 49.4555ZM174.454 49.4473C173.711 49.4473 173.049 49.2586 172.469 48.8813C171.89 48.4985 171.436 47.9543 171.108 47.2489C170.779 46.5379 170.615 45.6903 170.615 44.7059C170.615 43.7106 170.782 42.8602 171.116 42.1547C171.449 41.4493 171.906 40.9106 172.486 40.5387C173.065 40.1668 173.722 39.9809 174.454 39.9809C175.029 39.9809 175.488 40.0766 175.833 40.268C176.183 40.454 176.453 40.6727 176.645 40.9243C176.842 41.1758 176.992 41.3973 177.096 41.5887H177.203V37.0442H178.974V49.2668H177.244V47.8395H177.096C176.992 48.0309 176.839 48.2524 176.637 48.504C176.434 48.7555 176.158 48.977 175.808 49.1684C175.463 49.3543 175.012 49.4473 174.454 49.4473ZM174.84 47.9297C175.354 47.9297 175.789 47.793 176.144 47.5196C176.5 47.2461 176.768 46.8661 176.948 46.3793C177.134 45.8926 177.227 45.3293 177.227 44.6895C177.227 44.0497 177.137 43.4918 176.956 43.0161C176.776 42.5348 176.508 42.1629 176.153 41.9004C175.797 41.6325 175.36 41.4985 174.84 41.4985C174.304 41.4985 173.858 41.6379 173.503 41.9168C173.147 42.1958 172.879 42.5758 172.699 43.0571C172.519 43.5383 172.428 44.0825 172.428 44.6895C172.428 45.302 172.519 45.8543 172.699 46.3465C172.879 46.8333 173.147 47.2188 173.503 47.5032C173.864 47.7875 174.31 47.9297 174.84 47.9297ZM188.17 50.7926V35.5184H189.138V50.7926H188.17ZM188.654 49.4637C187.741 49.4637 186.948 49.3215 186.275 49.0372C185.608 48.7473 185.086 48.3344 184.708 47.7985C184.331 47.2625 184.121 46.6254 184.077 45.8872H185.931C185.969 46.3301 186.111 46.6993 186.357 46.9946C186.609 47.2844 186.934 47.5004 187.333 47.6426C187.733 47.7848 188.17 47.8559 188.646 47.8559C189.165 47.8559 189.63 47.7739 190.04 47.6098C190.451 47.4458 190.771 47.2161 191 46.9208C191.235 46.62 191.353 46.27 191.353 45.8708C191.353 45.5098 191.249 45.2145 191.041 44.9848C190.839 44.7551 190.563 44.5665 190.213 44.4188C189.863 44.2657 189.469 44.1317 189.031 44.0168L187.596 43.6231C186.612 43.3606 185.835 42.9696 185.266 42.45C184.697 41.925 184.413 41.2387 184.413 40.3911C184.413 39.6856 184.602 39.0704 184.979 38.5454C185.362 38.0204 185.879 37.6129 186.529 37.3231C187.186 37.0278 187.921 36.8801 188.736 36.8801C189.567 36.8801 190.297 37.0278 190.926 37.3231C191.561 37.6129 192.061 38.0122 192.428 38.5208C192.799 39.0239 192.994 39.6008 193.01 40.2516H191.222C191.156 39.6883 190.894 39.2508 190.434 38.9391C189.98 38.6274 189.401 38.4715 188.695 38.4715C188.203 38.4715 187.771 38.5508 187.399 38.7094C187.033 38.8625 186.748 39.0758 186.546 39.3493C186.349 39.6227 186.251 39.9372 186.251 40.2926C186.251 40.6754 186.368 40.9872 186.603 41.2278C186.844 41.4684 187.134 41.6598 187.473 41.802C187.817 41.9387 188.148 42.0508 188.465 42.1383L189.655 42.4583C190.043 42.5567 190.442 42.6879 190.853 42.852C191.263 43.0161 191.643 43.2321 191.993 43.5C192.348 43.7625 192.633 44.0907 192.846 44.4844C193.065 44.8727 193.174 45.343 193.174 45.8954C193.174 46.579 192.996 47.1915 192.641 47.7329C192.285 48.2688 191.771 48.6926 191.099 49.0043C190.426 49.3106 189.611 49.4637 188.654 49.4637ZM194.913 49.2668L200.245 38.7176V38.6274H194.076V37.0442H202.165V38.693L196.841 49.2668H194.913ZM207.349 49.4309C206.408 49.4309 205.602 49.1848 204.929 48.6926C204.262 48.2004 203.751 47.4895 203.395 46.5598C203.045 45.6247 202.87 44.4926 202.87 43.1637C202.87 41.8403 203.048 40.711 203.403 39.7758C203.759 38.8352 204.27 38.1188 204.937 37.6266C205.61 37.129 206.414 36.8801 207.349 36.8801C208.29 36.8801 209.094 37.129 209.761 37.6266C210.433 38.1188 210.945 38.8352 211.295 39.7758C211.65 40.711 211.828 41.8403 211.828 43.1637C211.828 44.4926 211.653 45.6247 211.303 46.5598C210.953 47.4895 210.444 48.2004 209.777 48.6926C209.11 49.1848 208.301 49.4309 207.349 49.4309ZM207.349 47.8559C207.923 47.8559 208.407 47.6727 208.801 47.3063C209.195 46.9399 209.495 46.4067 209.703 45.7067C209.911 45.0012 210.015 44.1536 210.015 43.1637C210.015 42.1684 209.911 41.3208 209.703 40.6208C209.495 39.9153 209.195 39.3793 208.801 39.0129C208.407 38.6411 207.923 38.4551 207.349 38.4551C206.501 38.4551 205.845 38.868 205.38 39.6938C204.921 40.5141 204.691 41.6708 204.691 43.1637C204.691 44.1536 204.795 45.0012 205.003 45.7067C205.211 46.4067 205.512 46.9399 205.905 47.3063C206.304 47.6727 206.786 47.8559 207.349 47.8559ZM212.648 52.2938L213.37 47.5114H215.29L213.936 52.2938H212.648ZM221.196 49.4309C220.255 49.4309 219.449 49.1848 218.776 48.6926C218.109 48.2004 217.597 47.4895 217.242 46.5598C216.892 45.6247 216.717 44.4926 216.717 43.1637C216.717 41.8403 216.895 40.711 217.25 39.7758C217.606 38.8352 218.117 38.1188 218.784 37.6266C219.457 37.129 220.261 36.8801 221.196 36.8801C222.137 36.8801 222.94 37.129 223.608 37.6266C224.28 38.1188 224.792 38.8352 225.142 39.7758C225.497 40.711 225.675 41.8403 225.675 43.1637C225.675 44.4926 225.5 45.6247 225.15 46.5598C224.8 47.4895 224.291 48.2004 223.624 48.6926C222.957 49.1848 222.147 49.4309 221.196 49.4309ZM221.196 47.8559C221.77 47.8559 222.254 47.6727 222.648 47.3063C223.042 46.9399 223.342 46.4067 223.55 45.7067C223.758 45.0012 223.862 44.1536 223.862 43.1637C223.862 42.1684 223.758 41.3208 223.55 40.6208C223.342 39.9153 223.042 39.3793 222.648 39.0129C222.254 38.6411 221.77 38.4551 221.196 38.4551C220.348 38.4551 219.692 38.868 219.227 39.6938C218.768 40.5141 218.538 41.6708 218.538 43.1637C218.538 44.1536 218.642 45.0012 218.85 45.7067C219.058 46.4067 219.358 46.9399 219.752 47.3063C220.151 47.6727 220.633 47.8559 221.196 47.8559ZM231.351 49.4309C230.411 49.4309 229.604 49.1848 228.931 48.6926C228.264 48.2004 227.753 47.4895 227.397 46.5598C227.047 45.6247 226.872 44.4926 226.872 43.1637C226.872 41.8403 227.05 40.711 227.406 39.7758C227.761 38.8352 228.272 38.1188 228.94 37.6266C229.612 37.129 230.416 36.8801 231.351 36.8801C232.292 36.8801 233.096 37.129 233.763 37.6266C234.436 38.1188 234.947 38.8352 235.297 39.7758C235.653 40.711 235.83 41.8403 235.83 43.1637C235.83 44.4926 235.655 45.6247 235.305 46.5598C234.955 47.4895 234.447 48.2004 233.779 48.6926C233.112 49.1848 232.303 49.4309 231.351 49.4309ZM231.351 47.8559C231.926 47.8559 232.41 47.6727 232.803 47.3063C233.197 46.9399 233.498 46.4067 233.706 45.7067C233.913 45.0012 234.017 44.1536 234.017 43.1637C234.017 42.1684 233.913 41.3208 233.706 40.6208C233.498 39.9153 233.197 39.3793 232.803 39.0129C232.41 38.6411 231.926 38.4551 231.351 38.4551C230.504 38.4551 229.847 38.868 229.383 39.6938C228.923 40.5141 228.694 41.6708 228.694 43.1637C228.694 44.1536 228.797 45.0012 229.005 45.7067C229.213 46.4067 229.514 46.9399 229.908 47.3063C230.307 47.6727 230.788 47.8559 231.351 47.8559ZM241.507 49.4309C240.566 49.4309 239.76 49.1848 239.087 48.6926C238.42 48.2004 237.908 47.4895 237.553 46.5598C237.203 45.6247 237.028 44.4926 237.028 43.1637C237.028 41.8403 237.206 40.711 237.561 39.7758C237.917 38.8352 238.428 38.1188 239.095 37.6266C239.768 37.129 240.572 36.8801 241.507 36.8801C242.447 36.8801 243.251 37.129 243.919 37.6266C244.591 38.1188 245.103 38.8352 245.453 39.7758C245.808 40.711 245.986 41.8403 245.986 43.1637C245.986 44.4926 245.811 45.6247 245.461 46.5598C245.111 47.4895 244.602 48.2004 243.935 48.6926C243.268 49.1848 242.458 49.4309 241.507 49.4309ZM241.507 47.8559C242.081 47.8559 242.565 47.6727 242.959 47.3063C243.353 46.9399 243.653 46.4067 243.861 45.7067C244.069 45.0012 244.173 44.1536 244.173 43.1637C244.173 42.1684 244.069 41.3208 243.861 40.6208C243.653 39.9153 243.353 39.3793 242.959 39.0129C242.565 38.6411 242.081 38.4551 241.507 38.4551C240.659 38.4551 240.003 38.868 239.538 39.6938C239.079 40.5141 238.849 41.6708 238.849 43.1637C238.849 44.1536 238.953 45.0012 239.161 45.7067C239.369 46.4067 239.669 46.9399 240.063 47.3063C240.462 47.6727 240.944 47.8559 241.507 47.8559Z" fill="#1D1D1D"/>
<defs>
<linearGradient id="paint0_linear_9739_992" x1="14.4283" y1="12.6164" x2="57.9702" y2="18.9011" gradientUnits="userSpaceOnUse">
<stop stop-color="#323232"/>
<stop offset="1"/>
</linearGradient>
</defs>
</svg>
