<svg width="182" height="30" viewBox="0 0 182 30" fill="none" xmlns="http://www.w3.org/2000/svg">
<g clip-path="url(#clip0_9708_486)">
<path d="M15.8005 0L20.6729 9.88399L31.5661 11.4501L23.6659 19.1415L25.5452 30L15.8005 24.884L6.02088 30L7.90023 19.1415L0 11.4501L10.9281 9.88399L15.8005 0Z" fill="#FFBB00"/>
<path d="M53.3321 0L58.2045 9.88399L69.1325 11.4501L61.2323 19.1415L63.0768 30L53.3321 24.884L43.5873 30L45.4318 19.1415L37.5664 11.4501L48.4597 9.88399L53.3321 0Z" fill="#FFBB00"/>
<path d="M90.9333 0L95.8057 9.88399L106.699 11.4501L98.7987 19.1415L100.678 30L90.9333 24.884L81.1537 30L83.033 19.1415L75.1328 11.4501L86.0261 9.88399L90.9333 0Z" fill="#FFBB00"/>
<path d="M128.465 0L133.337 9.88399L144.265 11.4501L136.365 19.1415L138.21 30L128.465 24.884L118.72 30L120.565 19.1415L112.699 11.4501L123.592 9.88399L128.465 0Z" fill="#FFBB00"/>
<path d="M166.066 0L170.938 9.88399L181.832 11.4501L173.932 19.1415L175.811 30L166.066 24.884L156.287 30L158.166 19.1415L150.266 11.4501L161.159 9.88399L166.066 0Z" fill="#FFBB00"/>
</g>
<defs>
<clipPath id="clip0_9708_486">
<rect width="182" height="30" fill="white"/>
</clipPath>
</defs>
</svg>
