<svg width="20" height="20" viewBox="0 0 20 20" fill="none" xmlns="http://www.w3.org/2000/svg">
<g clip-path="url(#clip0_9706_471)">
<mask id="mask0_9706_471" style="mask-type:luminance" maskUnits="userSpaceOnUse" x="0" y="0" width="20" height="20">
<path d="M20 0H0V20H20V0Z" fill="white"/>
</mask>
<g mask="url(#mask0_9706_471)">
<mask id="mask1_9706_471" style="mask-type:luminance" maskUnits="userSpaceOnUse" x="0" y="0" width="20" height="20">
<path d="M20 0H0V20H20V0Z" fill="white"/>
</mask>
<g mask="url(#mask1_9706_471)">
<path fill-rule="evenodd" clip-rule="evenodd" d="M19.5816 2.43872C20.1394 1.88083 20.1394 0.976309 19.5816 0.418423C19.0237 -0.139474 18.1192 -0.139474 17.5613 0.418423L10.6928 7.28694L12.4955 9.5248L19.5816 2.43872ZM7.50433 10.4753L9.30708 12.7133L2.43872 19.5816C1.88083 20.1394 0.976309 20.1394 0.418423 19.5816C-0.139474 19.0237 -0.139474 18.1192 0.418423 17.5613L7.50433 10.4753Z" fill="#1D1D1D"/>
<path d="M2.29 0C1.05884 0 0.443269 0 0.185897 0.324046C0.105634 0.425097 0.0492229 0.542971 0.0208801 0.66888C-0.0700114 1.07259 0.316149 1.55198 1.08849 2.51074L14.7139 19.425C14.9157 19.6757 15.0168 19.801 15.1498 19.88C15.1937 19.9061 15.2399 19.9281 15.2876 19.9459C15.4325 20 15.5935 20 15.9154 20H17.7099C18.941 20 19.5567 20 19.814 19.676C19.8943 19.5749 19.9506 19.457 19.9789 19.3311C20.0699 18.9274 19.6837 18.448 18.9114 17.4893L5.286 0.574983C5.08408 0.324309 4.98311 0.198972 4.85009 0.120034C4.80619 0.0939886 4.76007 0.0719087 4.71224 0.0540687C4.56731 1.30385e-07 4.40638 0 4.08449 0H2.29Z" fill="#1D1D1D"/>
</g>
</g>
</g>
<defs>
<clipPath id="clip0_9706_471">
<rect width="20" height="20" fill="white"/>
</clipPath>
</defs>
</svg>
